<svg xmlns="http://www.w3.org/2000/svg" fill="#1375d3" viewBox="0 0 512 512"><path d="M492 110c-17 7-36 12-56 15 20-12 36-31 43-54-19 11-39 19-61 24a97 97 0 00-165 88c-81-4-152-43-200-101a97 97 0 0030 129c-16 0-31-5-44-12v1c0 47 33 86 78 95a97 97 0 01-44 2c12 38 48 66 91 67a194 194 0 01-144 40 274 274 0 00424-244c19-14 35-31 48-50zm-58 37l-7 5 1 8v12a264 264 0 01-148 236 263 263 0 01-196 10 208 208 0 0089-41l35-28-45-1c-26 0-49-13-64-34 7 0 15-1 22-3l60-20-61-11c-30-6-53-28-62-56l24 3s32 2 56 0c-13-6-46-29-46-29a81 81 0 01-34-87 289 289 0 00193 88l22 1-5-21c-2-6-2-12-2-18a81 81 0 01140-55l6 6 8-2c5 0 9-1 14-3l-11 11-18 17 21 5c8 1 17-1 19-1l-11 8z"/></svg>