<?xml version="1.0" encoding="utf-8"?>
<!-- Generator: Adobe Illustrator 22.0.1, SVG Export Plug-In . SVG Version: 6.00 Build 0)  -->
<svg version="1.1" id="Layer_1" xmlns="http://www.w3.org/2000/svg" xmlns:xlink="http://www.w3.org/1999/xlink" x="0px" y="0px"
	 viewBox="0 0 100 100" style="enable-background:new 0 0 100 100;" xml:space="preserve">
<style type="text/css">
	.st0{fill:none;stroke:#000000;stroke-width:5;stroke-miterlimit:10;}
</style>
<path id="XMLID_46_" class="st0" d="M84.5,23.1c1.7-3.1,2.1-4.3,3.6-7.4c-0.5,0.2-7.4,2.6-10.8,3.8c-0.3,0.1-0.8,0-1.1-0.2
	c-5.2-4.2-11-5.2-17.3-3.6c-7.1,1.8-11.9,7.2-12.6,14.2c-0.1,1.3,0,4.1,0,4.1s-7.8-0.7-14.3-4.6c-5-3-9.5-6.6-13.2-11.1
	c-0.6-0.7-3-3.2-3.6-4c-2.4,7.6-2.3,16,1.5,22.7c-0.7-0.2-6.8-2.1-7.3-2.3c1,7,3.2,12.4,8.5,17.7c-1.2,0-6.5-0.1-8.3-0.4
	C12.6,62.2,27.7,67,27.7,67l-19,6.6c0,0,1.9,1.6,3.8,2.7c6.4,3.8,13.5,5.5,21,6c7.7,0.5,15.2,0.2,22.6-2.2
	c12-3.9,20.3-11.5,24.1-23.8c1.6-5.3,1.2-10.7,1.8-16.2c0.3-2.5,0.7-4.2,1.9-6.2c2.2-3.7,6.4-8.2,7.9-9.8
	C89.3,23.9,87.5,23.5,84.5,23.1z"/>
</svg>
