<?xml version="1.0" encoding="utf-8"?>
<!-- Generator: Adobe Illustrator 22.0.1, SVG Export Plug-In . SVG Version: 6.00 Build 0)  -->
<svg version="1.1" id="Layer_1" xmlns="http://www.w3.org/2000/svg" xmlns:xlink="http://www.w3.org/1999/xlink" x="0px" y="0px"
	 viewBox="0 0 6.8 6.3" style="enable-background:new 0 0 6.8 6.3;" xml:space="preserve">
<style type="text/css">
	.st0{fill:none;stroke:#000000;stroke-width:0.25;stroke-miterlimit:10;}
</style>
<circle class="st0" cx="3.4" cy="3.2" r="0.9"/>
<path class="st0" d="M5.5,3.6C5.5,3.9,5.4,4.1,5.2,4.4L5.8,5L5.2,5.6L4.6,4.9C4.4,5.1,4.1,5.2,3.8,5.3v0.9H3V5.3
	C2.7,5.2,2.4,5.1,2.2,4.9L1.6,5.6L1,5l0.6-0.6C1.5,4.1,1.3,3.9,1.3,3.6H0.4V2.8h0.9c0.1-0.3,0.2-0.6,0.3-0.8L1,1.3l0.6-0.6l0.6,0.6
	C2.4,1.2,2.7,1.1,3,1V0.2h0.8V1c0.3,0.1,0.6,0.2,0.8,0.3l0.6-0.6l0.6,0.6L5.2,1.9c0.2,0.2,0.3,0.5,0.3,0.8h0.9v0.8H5.5z"/>
</svg>
