<?xml version="1.0" encoding="utf-8"?>
<!-- Generator: Adobe Illustrator 22.0.1, SVG Export Plug-In . SVG Version: 6.00 Build 0)  -->
<svg version="1.1" id="Layer_1" xmlns="http://www.w3.org/2000/svg" xmlns:xlink="http://www.w3.org/1999/xlink" x="0px" y="0px"
	 viewBox="0 0 367.9 293.8" style="enable-background:new 0 0 367.9 293.8;" xml:space="preserve">
<style type="text/css">
	.st0{fill:#EAE6FF;}
	.st1{fill:#CDCCFF;}
	.st2{fill:#D7D7FF;}
	.st3{fill:#BDC6F9;}
	.st4{fill:#8784EF;}
	.st5{fill:#9AA3F4;}
	.st6{fill:none;stroke:#9AA3F4;stroke-width:1.5;stroke-miterlimit:10;}
	.st7{fill:#4A41A3;}
	.st8{fill:#5851BC;}
	.st9{opacity:0.35;fill:#5851BC;}
	.st10{opacity:0.3;}
	.st11{fill:#3939D3;}
	.st12{fill:#FEFEFE;}
	.st13{fill:#DD3545;}
	.st14{fill:#FFFFFF;}
	.st15{fill:none;stroke:#FFFFFF;stroke-miterlimit:10;}
	.st16{fill:#C4C3FC;}
	.st17{fill:#B1AFFD;}
	.st18{fill:#FCA70C;}
	.st19{fill:#EFEFEF;}
	.st20{opacity:0.6;}
	.st21{fill:#FFBE9D;}
	.st22{fill:#3B2E7A;}
	.st23{fill:#7A74D1;}
	.st24{fill:#453087;}
	.st25{fill:#5045AF;}
	.st26{fill:#FFB9B0;}
	.st27{fill:#7762EF;}
	.st28{opacity:0.35;}
	.st29{fill:#5146AF;}
	.st30{fill:#F2F2F2;}
	.st31{fill:#8484EF;}
	.st32{fill:#C4C4F7;}
	.st33{fill:#BBBBF2;}
	.st34{fill:#A4A4F7;}
	.st35{fill:none;stroke:#C4C4F7;stroke-width:0.75;stroke-linecap:round;stroke-linejoin:round;stroke-miterlimit:10;}
	.st36{fill:#CFCFFF;}
	.st37{fill:#ED9C80;}
	.st38{fill:#38287C;}
	.st39{opacity:0.25;fill:#DD3545;}
	.st40{opacity:0.25;}
	.st41{fill:#CE4A30;}
	.st42{opacity:0.45;fill:none;stroke:#A4A4F7;stroke-miterlimit:10;}
	.st43{fill:#483A99;}
</style>
<g>
	<path class="st0" d="M343.8,163c-5.9-16.5-15.3-21.6-24.1-32.2c-10.8-13-18.2-22.4-15.3-39c4.6-27.2,6.6-95.1-65.5-86.2
		c-25.8,3.2-46.2,23-61.1,42.7c-12.6,16.8-35.4,18.3-53.7,22.2c-22.5,4.8-45.4,12.1-66.2,22.7c-42.8,22-55.6,53.5-53.9,93.9
		c0.5,12.2,2.3,31.4,22.9,53.9c27.8,30.3,68.2,34.4,116.9,20.5c11.1-3.2,21.7-8.2,32.6-12c11.4-3.9,23.2-6.5,35.2-7.6
		c27.9-2.7,56.9,2.2,83.7-6.2c14.2-4.4,27.2-12.5,37.4-23.2C345.5,199.2,350,180.5,343.8,163z"/>
</g>
<g>
	<path class="st1" d="M26.9,225.3c0,4,50.6,7.2,113,7.2c62.4,0,113-3.2,113-7.2c0-4-50.6-7.2-113-7.2
		C77.5,218.1,26.9,221.3,26.9,225.3z"/>
</g>
<path class="st1" d="M95.8,234.2c0,2.5-12.8,4.5-28.7,4.5c-15.8,0-28.7-2-28.7-4.5c0-2.5,12.8-4.5,28.7-4.5
	C83,229.7,95.8,231.7,95.8,234.2z"/>
<g>
	<polygon class="st2" points="289.3,159.2 287.5,185.1 312.1,185.1 310.4,159.1 	"/>
	<g>
		<g>
			<path class="st0" d="M294.2,161.5L294.2,161.5c0-0.4,0.4-0.7,0.8-0.7c0,0,0,0,0,0c0.5,0,0.8,0.3,0.8,0.7c0,0.4-0.4,0.7-0.8,0.7
				c0,0,0,0,0,0C294.6,162.2,294.2,161.8,294.2,161.5z M295,161c-0.3,0-0.6,0.2-0.6,0.4c0,0.2,0.3,0.4,0.6,0.4c0,0,0,0,0,0
				c0.3,0,0.6-0.2,0.6-0.4C295.6,161.2,295.4,161,295,161L295,161z M294.3,161.5L294.3,161.5L294.3,161.5z"/>
		</g>
		<g>
			<path class="st0" d="M302.6,161.4l0.1,0L302.6,161.4c0-0.2,0.1-0.3,0.2-0.5c0.2-0.2,0.4-0.3,0.6-0.3c0,0,0,0,0,0
				c0.5,0,0.8,0.3,0.8,0.7c0,0.2-0.1,0.4-0.3,0.5c-0.2,0.1-0.4,0.2-0.6,0.2c0,0,0,0,0,0C303,162.1,302.6,161.8,302.6,161.4z
				 M303.5,161c-0.2,0-0.3,0.1-0.5,0.2c-0.1,0.1-0.1,0.1-0.1,0.3l0,0c0,0.2,0.3,0.4,0.6,0.4h0c0.2,0,0.3-0.1,0.4-0.1
				c0.1-0.1,0.2-0.2,0.2-0.3C304,161.2,303.8,161,303.5,161C303.5,161,303.5,161,303.5,161z"/>
		</g>
		<path class="st0" d="M299,166.7c0.1,0,0.2,0,0.2,0c1.5-0.1,2.7-0.5,3.5-1.5c1.3-1.5,1-3.7,1-3.8c0-0.1-0.2-0.3-0.3-0.2
			c-0.1,0-0.3,0.2-0.2,0.3c0,0,0.3,2-0.9,3.4c-0.7,0.8-1.7,1.2-3.1,1.3c-1.3,0-2.3-0.3-3-1c-1.2-1.3-0.9-3.5-0.9-3.6
			c0-0.1-0.1-0.3-0.2-0.3c-0.1,0-0.3,0.1-0.3,0.2c0,0.1-0.3,2.5,1,4C296.5,166.2,297.6,166.7,299,166.7z"/>
	</g>
	<polygon class="st3" points="300.9,166.4 298,185.7 324.8,185.6 322.1,166.4 	"/>
	<g>
		<path class="st4" d="M291,198.9c-3,0-5.4,2.4-5.4,5.4s2.4,5.4,5.4,5.4c3,0,5.4-2.4,5.4-5.4S294,198.9,291,198.9z M291,206.9
			c-1.4,0-2.5-1.1-2.5-2.5c0-1.4,1.1-2.5,2.5-2.5c1.4,0,2.5,1.1,2.5,2.5C293.5,205.8,292.4,206.9,291,206.9z"/>
		<path class="st5" d="M290.1,198.9c-3,0-5.4,2.4-5.4,5.4s2.4,5.4,5.4,5.4c3,0,5.4-2.4,5.4-5.4S293.1,198.9,290.1,198.9z
			 M290.1,206.9c-1.4,0-2.5-1.1-2.5-2.5c0-1.4,1.1-2.5,2.5-2.5c1.4,0,2.5,1.1,2.5,2.5C292.6,205.8,291.5,206.9,290.1,206.9z"/>
		<path class="st4" d="M321.7,198.9c-3,0-5.4,2.4-5.4,5.4s2.4,5.4,5.4,5.4c3,0,5.4-2.4,5.4-5.4S324.7,198.9,321.7,198.9z
			 M321.7,206.9c-1.4,0-2.5-1.1-2.5-2.5c0-1.4,1.1-2.5,2.5-2.5c1.4,0,2.5,1.1,2.5,2.5C324.2,205.8,323.1,206.9,321.7,206.9z"/>
		<path class="st5" d="M320.8,198.9c-3,0-5.4,2.4-5.4,5.4s2.4,5.4,5.4,5.4c3,0,5.4-2.4,5.4-5.4S323.8,198.9,320.8,198.9z
			 M320.8,206.9c-1.4,0-2.5-1.1-2.5-2.5c0-1.4,1.1-2.5,2.5-2.5c1.4,0,2.5,1.1,2.5,2.5C323.3,205.8,322.2,206.9,320.8,206.9z"/>
		<g>
			<path class="st6" d="M362.8,137.9h-16.3c-1.7,0-3.3,0.9-4.2,2.3l-9.9,15.9"/>
			<path class="st6" d="M288.4,185.2h36.5c1.9,0,3.6-1.4,3.9-3.3l3.8-23.6c0.4-2.4-1.5-4.6-3.9-4.6h-44.1c-2.4,0-4.3,2.2-3.9,4.6
				l3.8,23.6C284.8,183.8,286.5,185.2,288.4,185.2z"/>
			<line class="st6" x1="306.7" y1="153.8" x2="306.7" y2="185.2"/>
			<line class="st6" x1="330.8" y1="169.5" x2="282.5" y2="169.5"/>
			<line class="st6" x1="321.1" y1="153.8" x2="318" y2="185.2"/>
			<line class="st6" x1="293" y1="153.8" x2="295.9" y2="185.2"/>
			<path class="st6" d="M328,183.8l5.9,8.8c1.6,2.4-0.1,5.6-3,5.6h-48.4"/>
		</g>
	</g>
</g>
<rect x="153.9" y="204.5" class="st7" width="50.1" height="13.5"/>
<path class="st8" d="M261,208.9H97.4c-2.8,0-5-2.2-5-5V89c0-2.8,2.2-5,5-5H261c2.8,0,5,2.2,5,5v114.9
	C266,206.7,263.8,208.9,261,208.9z"/>
<path class="st8" d="M225.5,225.3h-93.1v-1.2c0-4,3.3-7.3,7.3-7.3h78.5c4,0,7.3,3.3,7.3,7.3V225.3z"/>
<path class="st9" d="M103.3,132.3c-1,1.1-2.1,3.4-2.6,4.3c-0.5,1-1,1.5-2.4,2.2c-1.9,0.9-4,1.7-5.9,2.5v5.1c4-2.4,7.6-4.6,7.7-4.7
	c3.1,1.2,5.6-1.4,6.4-3.2c0.4-0.8-0.2-1.2-0.2-1.5c0-0.2,0.2-1.4,0.2-1.5c-0.2-1.1-3.1-0.1-2.9-0.6c0.1-0.4,0.5-1.3,1.2-1.8
	c1.4-1,2.5-2,2.5-2.4C107.3,129.8,103.6,131.9,103.3,132.3z"/>
<path class="st8" d="M172.4,56h35.3l-4.2-2.7V36.8c0-1.1-1-2-2.3-2h-28.7c-1.3,0-2.3,0.9-2.3,2V54C170.1,55.1,171.2,56,172.4,56z"/>
<g class="st10">
	<g>
		<g>
			<polyline class="st11" points="70.6,78.9 74.1,80.6 72.4,76.3 			"/>
		</g>
		<path class="st11" d="M59.8,73.4c0,3.9,3.3,7,7.4,7s7.4-3.1,7.4-7c0-3.9-3.3-7-7.4-7S59.8,69.5,59.8,73.4z"/>
	</g>
	<path class="st12" d="M65.3,71.1v5c0,0.4,0.4,0.7,0.8,0.5l4.3-2.5c0.3-0.2,0.3-0.7,0-0.9l-4.3-2.5C65.8,70.4,65.3,70.7,65.3,71.1z"
		/>
</g>
<g>
	<g>
		<polyline class="st13" points="311.7,133.7 307,136.1 309.3,130.4 		"/>
	</g>
	<path class="st13" d="M326.1,126.4c0,5.1-4.4,9.3-9.9,9.3c-5.4,0-9.9-4.2-9.9-9.3c0-5.1,4.4-9.3,9.9-9.3
		C321.7,117.1,326.1,121.3,326.1,126.4z"/>
</g>
<g class="st10">
	<g>
		<g>
			<polyline class="st11" points="200.8,71.4 203.4,68.6 199.9,69.3 			"/>
		</g>
		<path class="st11" d="M191.4,72c0,2.8,2.4,5.1,5.4,5.1s5.4-2.3,5.4-5.1c0-2.8-2.4-5.1-5.4-5.1S191.4,69.2,191.4,72z"/>
	</g>
	<g>
		<g>
			<g>
				<path class="st12" d="M195.7,74.4c1.1,0,2.1,0,3.1,0c0.3,0,0.6-0.5,0.2-0.7c0.2-0.1,0.3-0.2,0.4-0.3c0.1-0.2,0-0.4-0.2-0.5
					c0.4,0.1,0.5-0.5,0.2-0.7c0.2-0.1,0.3-0.3,0.3-0.5c0-0.2,0-0.4-0.2-0.5c-0.1-0.1-0.3-0.1-0.4-0.1c-0.4,0-0.9,0-1.3,0
					c0.1-0.7,0.2-1.5-0.2-2.1c-0.1-0.2-0.4-0.4-0.6-0.3c-0.2,0.1-0.2,0.5-0.1,0.7c0,0.9-0.4,1.8-1.2,2.2
					C195.7,71.5,195.7,73.4,195.7,74.4z"/>
			</g>
		</g>
		<rect x="193.7" y="71.5" class="st12" width="1.6" height="2.9"/>
	</g>
</g>
<g class="st10">
	<path class="st11" d="M225.8,34.3c1.1-1.4,1.7-3.1,1.7-4.9c0-4.4-3.5-7.9-7.9-7.9c-4.4,0-7.9,3.5-7.9,7.9c0,4.4,3.5,7.9,7.9,7.9
		c1.6,0,3.1-0.5,4.4-1.3l3.1,1.6L225.8,34.3z"/>
	<path class="st14" d="M216.3,27.2c0.8-0.7,2-0.7,2.7,0l0.5,0.5l0.5-0.5c0.8-0.8,2-0.7,2.7,0c0.7,0.8,0.7,2,0,2.7l-1.9,1.9
		c0,0,0,0,0,0c-0.3,0.3-0.7,0.5-1.1,0.5c-0.6,0.1-1.2-0.1-1.7-0.6l-1.8-1.9C215.5,29.2,215.5,28,216.3,27.2z"/>
</g>
<polyline class="st15" points="181.7,39.8 174.5,45.6 181.7,51.1 "/>
<polyline class="st15" points="191.2,39.8 198.4,45.6 191.2,51.1 "/>
<line class="st15" x1="188.1" y1="39.2" x2="184.4" y2="51.6"/>
<path class="st16" d="M137,174.7h-17.3c-2.2,0-4-1.8-4-4l0,0c0-2.2,1.8-4,4-4H137c2.2,0,4,1.8,4,4l0,0
	C141,172.9,139.2,174.7,137,174.7z"/>
<rect x="100.6" y="91.6" class="st14" width="156.4" height="102.1"/>
<g>
	<g>
		<g>
			<rect x="178.7" y="163.2" class="st17" width="4.3" height="4.3"/>
		</g>
	</g>
</g>
<g>
	<g>
		<g>
			<rect x="178.7" y="170.8" class="st18" width="4.3" height="4.3"/>
		</g>
	</g>
</g>
<g>
	<g>
		<g>
			<rect x="184.2" y="172.6" class="st19" width="13.6" height="2.4"/>
		</g>
	</g>
</g>
<g>
	<g>
		<g>
			<rect x="184.2" y="165.1" class="st19" width="13.6" height="2.4"/>
		</g>
	</g>
</g>
<g>
	<g>
		<g>
			<rect x="204" y="163.2" class="st17" width="4.3" height="4.3"/>
		</g>
	</g>
</g>
<g>
	<g>
		<g>
			<rect x="204" y="170.8" class="st13" width="4.3" height="4.3"/>
		</g>
	</g>
</g>
<g>
	<g>
		<g>
			<rect x="209.5" y="172.6" class="st19" width="13.6" height="2.4"/>
		</g>
	</g>
</g>
<g>
	<g>
		<g>
			<rect x="209.5" y="165.1" class="st19" width="13.6" height="2.4"/>
		</g>
	</g>
</g>
<g>
	<g>
		<g>
			<rect x="226.8" y="163.2" class="st17" width="4.3" height="4.3"/>
		</g>
	</g>
</g>
<g>
	<g>
		<g>
			<rect x="226.8" y="170.8" class="st13" width="4.3" height="4.3"/>
		</g>
	</g>
</g>
<g>
	<g>
		<g>
			<rect x="232.2" y="172.6" class="st19" width="9" height="2.4"/>
		</g>
	</g>
</g>
<g>
	<g>
		<g>
			<rect x="232.2" y="165.1" class="st19" width="9" height="2.4"/>
		</g>
	</g>
</g>
<g>
	<g>
		<g>
			<g>
				<rect x="179.5" y="122.1" class="st19" width="61.7" height="1.1"/>
			</g>
		</g>
	</g>
	<g>
		<g>
			<g>
				<rect x="179.3" y="125.6" class="st19" width="61.9" height="1.1"/>
			</g>
		</g>
	</g>
	<g>
		<g>
			<g>
				<rect x="179.3" y="118.6" class="st19" width="61.9" height="1.1"/>
			</g>
		</g>
	</g>
	<g>
		<g>
			<g>
				<rect x="179.3" y="115.4" class="st19" width="61.9" height="1.1"/>
			</g>
		</g>
	</g>
	<g>
		<g>
			<g>
				<rect x="179.3" y="112.2" class="st19" width="61.9" height="1.1"/>
			</g>
		</g>
	</g>
	<g>
		<g>
			<g>
				<rect x="179.3" y="108.9" class="st19" width="61.9" height="1.1"/>
			</g>
		</g>
	</g>
	<g>
		<g>
			<g>
				<rect x="179.3" y="129.1" class="st19" width="61.9" height="1.1"/>
			</g>
		</g>
	</g>
	<g>
		<g>
			<g>
				<rect x="179.3" y="132.6" class="st19" width="61.9" height="1.1"/>
			</g>
		</g>
	</g>
	<g>
		<g>
			<g>
				<rect x="179.3" y="136.1" class="st19" width="61.9" height="1.1"/>
			</g>
		</g>
	</g>
	<g>
		<g>
			<g>
				<rect x="179.3" y="139.6" class="st19" width="61.9" height="1.1"/>
			</g>
		</g>
	</g>
	<g>
		<g>
			<g>
				<rect x="179.3" y="143.1" class="st19" width="61.9" height="1.1"/>
			</g>
		</g>
	</g>
	<g>
		<g>
			<g>
				<rect x="179.3" y="146.6" class="st19" width="61.9" height="1.1"/>
			</g>
		</g>
	</g>
	<g>
		<g>
			<g>
				<rect x="186.9" y="150.1" class="st19" width="54.3" height="1.1"/>
			</g>
		</g>
	</g>
</g>
<rect x="116.9" y="114.9" transform="matrix(0.9886 -0.1503 0.1503 0.9886 -17.8017 24.7832)" class="st0" width="76.3" height="30.7"/>
<g class="st20">
	
		<rect x="120.1" y="127.8" transform="matrix(0.9886 -0.1503 0.1503 0.9886 -17.8207 22.7091)" class="st13" width="42.4" height="3"/>
	<rect x="121" y="133.4" transform="matrix(0.9886 -0.1503 0.1503 0.9886 -18.684 22.5691)" class="st13" width="38.1" height="3"/>
	
		<rect x="121.8" y="139.6" transform="matrix(0.9886 -0.1503 0.1503 0.9886 -19.6827 21.8409)" class="st13" width="25.7" height="3"/>
	
		<rect x="119.5" y="124.9" transform="matrix(0.9886 -0.1503 0.1503 0.9886 -17.5524 20.5486)" class="st13" width="15.3" height="3"/>
</g>
<g>
	
		<rect x="166.9" y="115.2" transform="matrix(0.9886 -0.1503 0.1503 0.9886 -17.0212 28.2501)" class="st17" width="23.1" height="23.1"/>
	<path class="st14" d="M180.7,126.2c0.3-0.5,0.4-1.2,0.3-1.8l-0.3-1.7c-0.2-1.6-1.7-2.7-3.3-2.5c-1.6,0.2-2.7,1.7-2.5,3.3l0.3,1.7
		c0.1,0.7,0.4,1.3,0.9,1.7c-2.5,1.3-4,4.2-3.6,7.2l14.4-2.2C186.9,132,185.5,126.9,180.7,126.2z"/>
</g>
<g>
	
		<ellipse transform="matrix(0.9985 -5.512541e-02 5.512541e-02 0.9985 -15.299 9.6735)" class="st0" cx="167.7" cy="282.2" rx="48.1" ry="3.6"/>
	<path class="st5" d="M153.7,275.8c0,0-0.9,2-2.6,2.4c-1.6,0.3-5.9,1.3-6.6,1.9c-0.7,0.6-0.7,2.1-0.7,2.1h13.5c0,0,0-4.1-0.8-6.2
		C156.9,275.9,153.7,275.8,153.7,275.8z"/>
	<path class="st5" d="M179.7,275.8c0,0-0.9,2-2.6,2.4c-1.6,0.3-5.9,1.3-6.6,1.9c-0.7,0.6-0.7,2.1-0.7,2.1h13.5c0,0,0-4.1-0.8-6.2
		C183,275.9,179.7,275.8,179.7,275.8z"/>
	<path class="st21" d="M178.1,143c0,0-3.8-1-4-0.4c-0.2,0.6,5.8,2.4,5.8,2.4l5.4,15.1l-2,4.8l3.7,4.1c0,0,4.1-5.5,4.4-7.2
		s-9.7-17.9-9.7-17.9s-2-6.3-2.3-6.6c-0.3-0.3-3.9-0.1-4.7-0.1c-0.8,0,2.4,3.2,2.4,3.2L178.1,143z"/>
	<path class="st21" d="M163.5,154.2c0,0-1.8,2.5-2.2,5.2c-0.4,2.7,0.1,5.2,0.1,5.2l3.3-0.1v3.1h6.5c0,0,0.1-2.3,0.4-3.6
		c0.3-1.3,2-3.7,2-3.7l-2.9-8.3l-4.2-0.4L163.5,154.2z"/>
	<path class="st22" d="M165.1,158.1c0,0,1.1-2.7,2.6-1.7c1.4,1-0.4,3.2-0.4,3.2s0.9,3.7,2.4,4.2c1.5,0.5,1.5,0.5,1.5,0.5
		s4-3.7,4.6-4.7c0.6-1-1-6.9-2.2-8.2c-1.1-1.3-6.1-1.1-6.5-1.8c-0.4-0.6-1.7-1.8-2.9-1.3c-1.3,0.5-1,4.7-1,4.7s1.6,1.4,1.7,2.3
		c0.1,1-0.6,2.3-0.6,2.3L165.1,158.1z"/>
	<path class="st23" d="M158.9,167.8c0,0,6.5-1,10.3-1c3.7-0.1,9.7,1.9,9.7,1.9l4.3-4.6l5.5,5.2c0,0-4.7,6.9-6.2,8.6
		c-1.5,1.6-2.6,9.2-3,11.5c-0.3,2.3-1.2,15.7-1.2,15.7s-4,4.8-20.4-0.4c-0.2-0.2,0.7-9.9,0.6-12.3c-0.1-2.4-2.2-10.5-2.6-12.4
		c-0.4-2-7.2-5.9-7.2-5.9s-0.8-4.8,2.3-7.1C151.4,167.2,158.9,167.8,158.9,167.8z"/>
	<path class="st21" d="M143.7,148.3c0,0-2.5,2.3-2.6,3.2c-0.2,0.9,3.4,11.6,3.4,11.6l6.5,3.8l-2.3,7.1c0,0-7.1-4.9-8.1-6.4
		c-1-1.4-2.8-15.9-2.8-15.9s-2.3-2.9-2.5-3.7c-0.2-0.8-0.7-3.3-0.3-3.8c0.4-0.5,3-3.2,3.4-2.4c0.4,0.8,1.8,6.7,1.8,6.7
		S143.1,147.2,143.7,148.3z"/>
	<path class="st24" d="M158,204.5l-3.7,34.9l-1.9,37l6.4,0.3c0,0,4-24.6,4-28.3c0.1-3.7-0.1-8.2-0.1-8.2l4.1-18.6h2.3l4.7,24.3
		l4.9,30.1l5.1,0.3c0,0,0.8-18.8,0-22.6c-0.8-3.8-1.9-7.5-1.9-7.5l-2.3-25.2c0,0,2-8.9-1.1-16C177.7,203.7,158,204.5,158,204.5z"/>
</g>
<g>
	<g>
		<path class="st25" d="M73,111.2c1.3,2.3,0.2,5.5,1.5,7.8c0.5,0.9,1.5,1.7,1.7,2.7c0.2,0.9-0.1,1.9-0.8,2.4
			c-0.7,0.6-1.7,0.6-2.5,0.2c-0.2-0.1-0.3-0.2-0.5-0.3c-0.7-0.2-1.3,0.4-1.8,0.8c-0.7,0.5-1.6,0.7-2.4,0.4c-1-0.3-1.7-1.4-2-2.4
			c-1-2.9-0.3-6.1,0.6-9c0.4-1.5,1.1-3.1,2.5-3.6"/>
	</g>
	<path class="st26" d="M104.1,135.8c0,0.3,0.5,0.6,0.2,1.3c-0.7,1.5-3,3.6-5.7,2.6c-0.1,0-15,8.6-16.1,8.6c-1.1,0-9-7.4-11.5-16.5
		c-0.6-2.2-0.4-4.7,1.7-5.8c0,0,1.7,0.4,2.8,2.5c1.7,3.2,6.8,13.8,7.9,14.2c1.4-0.9,8.2-3,13.7-5.3c1.2-0.5,1.7-1,2.1-1.8
		c0.4-0.8,1.4-2.7,2.3-3.6c0.3-0.3,3.6-2.1,3.6-1.5c0,0.3-1,1.2-2.2,2c-0.6,0.4-0.9,1.2-1.1,1.5c-0.2,0.4,2.3-0.4,2.6,0.5
		C104.4,134.7,104.1,135.7,104.1,135.8z"/>
	<g>
		<path class="st27" d="M72,125.7c1.9,0.5,3.5,1.7,4.4,3.4c0.2,0.4,0.4,0.9,0.6,1.4c0.8,2,1.9,3.8,2.7,5.9c-1.1,0.9-2.4,1.3-3.5,1.7
			c-1,0.4-2.2,0.5-3.3,0.4c-0.2,0-0.4,0-0.5-0.1c-0.2-0.1-0.4-0.3-0.6-0.5c-0.3-0.4-0.7-0.8-1-1.2c-0.3-0.3-0.5-0.7-0.7-1.1
			c-0.2-0.6,0-1.2,0.2-1.8"/>
	</g>
	<g class="st28">
		<path class="st27" d="M74,131.2c-0.1-0.1-0.1-0.2-0.3-0.2c-0.2-0.1-0.4,0.1-0.5,0.2c-0.1,0.2-0.1,0.4-0.1,0.6
			c0,0.8,0.1,1.6,0.4,2.4l-0.3,4.3c0,0,0,0,0,0c1,0.1,2.1-0.1,3-0.4c0.5-0.2,1-0.3,1.5-0.6C77.2,135.2,75.6,133.1,74,131.2z"/>
	</g>
	<path class="st26" d="M67.4,121.5c0,0-0.1,2.7,0.4,2.8c0.8,0.3,1.7,0.5,1.7,0.5l0,5.5l-7.3-1.1l-5.1-2.8c0,0,5.3-1.7,5.3-2.3
		c0-0.5-0.3-3.5-0.3-3.5"/>
	<g>
		<path class="st26" d="M56.1,201.2C56.1,201.2,56.1,201.2,56.1,201.2c-2,9.5-1.1,22.6-1.5,29.8c0.1,0,2.7,0.4,2.7,0.4
			s6.2-30.2,7.3-36c0.1-0.4,0.1-0.8,0.1-1.1c0.3-4.4-3.7-4.6-5.9-1c-0.4,0.6-0.7,1.2-1,1.9c-0.1,0.3-0.2,0.6-0.4,0.9l0,0
			c-0.4,0.9-0.7,2-1,3l0,0.1c-0.1,0.3-0.2,0.6-0.2,0.9l0,0.1C56.2,200.6,56.2,200.9,56.1,201.2z"/>
		<path class="st26" d="M67.9,167c-0.1,0.8-0.5,4.5-1,9c-0.4,3.7-0.9,7.9-1.3,11.2c-0.3,2.5-0.5,4.5-0.6,5.4c0,0.6-0.1,1.1-0.2,1.6
			v0c-0.9,4.4-4,4.6-5.8,3.6c-0.3-0.1-0.5-0.3-0.7-0.5c-0.4-0.4-0.7-0.8-0.8-1.3v0c-0.1-0.9-0.2-2.1-0.3-3.6v0c0,0,0,0,0,0l0,0
			c-0.2-2.8-0.4-6.5-0.6-10c-0.2-4.4-0.3-8.5-0.4-10.9c0-0.1,0-0.3,0-0.4c0-7.3,6.6-11.9,10.8-9.6c0.1,0,0.1,0,0.1,0.1
			c0.1,0,0.1,0.1,0.2,0.1c0.5,0.3,0.6,1.4,0.6,2.6C68,165.2,67.9,166.2,67.9,167z"/>
		<path class="st26" d="M57.7,194.4l-0.5-1.9c0,0,0,0,0,0c0,0.4,0.1,3.5-0.6,6.6l0,0.1c-0.1,0.3-0.1,0.6-0.2,0.9l0,0.1
			c-0.1,0.5-0.2,0.8-0.2,1c0,0,0,0,0,0c0,0.9,1.8-3,2.2-3.9c0.1-0.1,0.1-0.2,0.1-0.2l-0.5-2L57.7,194.4z"/>
	</g>
	<g>
		<path class="st26" d="M72.1,203C72.1,203.1,72.1,203.1,72.1,203c-0.2,10,2.9,21.7,3.7,29c0.1,0,2.5-0.3,2.5-0.3s0.5-30.6,0.5-36.6
			c0-0.4,0-0.8-0.1-1.2c-0.5-4.4-4.1-3.6-5.4,0.5c-0.2,0.7-0.4,1.4-0.6,2.2c-0.1,0.3-0.1,0.6-0.2,1l0,0c-0.2,1-0.3,2.1-0.4,3.3
			l0,0.1c0,0.3,0,0.7-0.1,1l0,0.1C72.1,202.4,72.1,202.7,72.1,203z"/>
		<path class="st26" d="M74.2,199c-0.3-0.1-0.5-0.2-0.7-0.3c-0.5-0.3-0.8-0.7-0.9-1.1l0,0c-0.3-0.9-0.6-2.1-0.9-3.5c0,0,0,0,0,0l0,0
			c-0.7-2.8-1.5-6.3-2.2-9.8c-0.9-4.3-1.7-8.4-2.2-10.8c0-0.1-0.4-1.8-0.4-2c-1.3-7.3,4.4-12,8.5-10.6c0.1,0,0.1,0,0.2,0.1
			c0.8,0.3,1.1,3.3,1.2,5.2c0.2,2,1.6,22.4,1.9,26.1c0.1,0.6,0.1,1.1,0.1,1.7C78.6,198.5,76,199.5,74.2,199z"/>
		<path class="st26" d="M72.4,195.8l-0.8-1.8c0,0,0,0,0,0c0.1,0.4,0.6,3.5,0.6,6.8l0,0.1c0,0.3,0,0.7-0.1,1l0,0.1c0,0.5,0,0.9,0,1
			c0,0,0,0,0,0c0.1,0.9,1.1-3.4,1.4-4.4c0-0.1,0-0.2,0-0.2l-0.8-1.9L72.4,195.8z"/>
	</g>
	<path class="st29" d="M59.7,153c0,0-5.3,6.8-4.8,13.6c0.2,2.8,0.6,5.3,0.9,8.2c0,0.4,0.7,6.4,0.5,6.4c0,0,11,3.4,21.7-1.1
		c0-0.7,0.9-14.7-4.9-28C66.2,153.2,59.7,153,59.7,153z"/>
	<path class="st27" d="M76.5,137.3c0,1.9-1.1,3.1-2.6,4.8c-0.2,0.3-0.6,4.6-0.8,7.5c-0.1,1.5,0.6,2.4,0,2.6
		c-2.1,1.9-9.8,3.4-13.4,0.8c0.4-3.1-1-10-2-13.6c-0.1-0.5-0.3-1-0.4-1.3c-0.9-2.7-2.5-11.2-1.3-11.6c0.2-0.1,0.6-0.2,1-0.3
		c1.8-0.6,4.6-1.5,4.6-1.5s1.6,4.7,5.8,5.3c2.3-0.9,2.1-3.8,2-5.1c0.7,0.2,1.1,0.4,3.4,1.1c0.6,0.9,0.1,2.9,1.1,5.8
		C74.2,132.5,76.5,135,76.5,137.3z"/>
	<path class="st26" d="M72.7,110.6c0,0,0.4,5.1-0.5,7.8c-0.7,2-3.3,3.9-5.6,3.8c-6.1,0-7.2-8.3-7.2-8.7c0-0.4,9.1-3.9,9.1-3.9
		L72.7,110.6z"/>
	<g>
		<path class="st25" d="M84.4,234.9c-2.2,0.4-4.5-0.2-5.5-0.1c-0.8,0.1-2.8,0.7-3.6,0c-0.8-0.7-0.6-3.1,0.2-3.4c0,0,0.2,0.1,0.6,0.1
			c0.5,0.1,1.5,0.1,2.6-0.2c1.7,0.7,1.7,1,3.6,1.4c0.8,0.2,1.8,0.4,2.4,0.7C85.6,233.8,85.6,234.7,84.4,234.9z"/>
	</g>
	<g>
		<path class="st25" d="M60.8,235.9c-2.2-0.4-3.6-1.6-4.5-1.7c-0.8-0.1-2.8-0.5-3-1.3c-0.2-0.6,0.4-3.1,1.4-3.1c0,0,0.2,0.1,0.5,0.3
			c0.5,0.3,1.3,0.6,2.5,0.7c1.3,1.2,1.3,1.5,2.9,2.5c0.7,0.4,1.5,1,2,1.5C63.2,235.3,62,236.1,60.8,235.9z"/>
	</g>
	<g>
		<path class="st26" d="M28.9,133.7l2-2.4l12.3,11c0,0,6-8,7.6-10.5c1.8-2.7,3.4-5.1,6.1-5.5c0.6,0.4-0.2,10.2-0.5,10.5
			c-3.7,2.8-10.9,11.7-13.2,12.2C40.5,149.4,28.9,133.7,28.9,133.7z"/>
		<path class="st27" d="M57.8,125.8c0,0-2.5,0-3.6,0.9c-1.1,0.9-6.2,9.1-6.2,9.1s-0.1,1.5,1.4,2.8c1.6,1.4,3.7,1.6,3.7,1.6
			s2.6-2.6,4-3.7c0.9-0.7,1,1.1,1,1.1l4.6-4.5L57.8,125.8z"/>
	</g>
	<g>
		<path class="st25" d="M56.3,125.9c-0.1-0.1-0.3-0.2-0.4-0.2c-0.7-0.4-1.4-0.9-1.6-1.7c-0.4-1.2-0.6-2.9,0-4
			c0.4-0.8,1.2-1.3,1.7-1.9c0.7-0.9,0.9-2.2,1-3.4c0.1-1.2,0-2.4,0.2-3.5c0.4-2,1-3.9,2.5-5.1c2.4-2,7.4-3.3,10-1
			c0.5,0.4,0.6,0.7,1.2,0.8c0.9,0.1,1.4,0.2,2.2,0.7c0.9,0.5,1.9,1.2,1.8,2.4c-0.1,0.8-1,2.1-1.7,2.4c-0.3,0.2-0.6,0.2-0.9,0.2
			c-1,0-1.9-0.7-2.9-0.5c-0.5,0.1-1,0.3-1.3,0.7c-0.4,0.5-0.3,1.1-0.7,1.5c-0.7,0.7-1.8,0.6-2.6,1.1c-0.1,0.1-0.3,0.2-0.4,0.3
			c-0.1,0.1-0.1,0.3-0.1,0.4c0,0.4,0,0.9,0,1.3c-0.4-0.2-0.4-0.8-0.8-1c-0.3-0.3-0.8-0.2-1.2,0.1c-0.3,0.3-0.5,0.7-0.6,1.1
			c-0.1,0.5,0.1,1,0.2,1.5c0.3,0.9,1,1.7,1.6,1.1c0.4,0.6,0,1.7-0.1,2.5c0,0.6,0,1.7,0.5,2.1c0.5,0.4,1.3,0.1,1.3,1
			c0,0.8-0.8,1.5-1.6,1.6c-0.8,0.1-1.6-0.2-2.4-0.4c-0.8-0.2-1.7-0.4-2.4-0.1c-0.5,0.2-0.9,0.5-1.4,0.6
			C57.2,126.3,56.7,126.1,56.3,125.9z"/>
	</g>
	<g>
		<path class="st26" d="M34,134.1c0,0-2.9-2.3-3.1-2.9c-0.2-0.6-0.2-1.3-0.5-1.9c-0.3-0.9-1.1-1.6-2-2c-0.7-0.3-0.4-0.5-1.1-0.4
			c-1.2,0.2-1.7,1.4-2.2,2.3c-2,3.8,3.5,4.5,3.7,4.6c0.4,0,2.4,2.3,2.4,2.3"/>
	</g>
	<g>
		<path class="st31" d="M24.9,132.2l2,1.3c0.3,0.2,0.6,0.1,0.8-0.2l4.3-7.3l-2.6-1.4l-4.7,6.8C24.5,131.7,24.6,132.1,24.9,132.2z"/>
		<g>
			<path class="st32" d="M17.8,116.8l0.7,0.5l2.8-4l-0.7-0.5c-1-0.7-2.4-0.3-3.1,0.8l0,0C16.7,114.7,16.8,116.1,17.8,116.8z"/>
			<polygon class="st32" points="15.3,121.7 27.9,123.6 30.8,119.4 24.4,108.3 			"/>
			<polygon class="st33" points="16.1,121.9 27.9,123.6 29.1,121.9 19.1,117.4 			"/>
			<path class="st32" d="M33.1,126.7L33.1,126.7c0.7,0.5,1.7,0.2,2.2-0.6l0.5-0.7c0.5-0.8,0.4-1.8-0.3-2.2l0,0
				c-0.7-0.5-1.7-0.2-2.2,0.6l-0.5,0.7C32.3,125.2,32.5,126.2,33.1,126.7z"/>
			<path class="st33" d="M33.4,123.7l-0.5,0.7c-0.5,0.8-0.4,1.8,0.3,2.2c0.7,0.5,1.7,0.2,2.2-0.6l0.5-0.7c0-0.1,0.1-0.1,0.1-0.2
				c-0.5,0.6-1.4,0.8-2.1,0.4s-0.8-1.3-0.4-2.1C33.5,123.6,33.4,123.6,33.4,123.7z"/>
			<path class="st34" d="M14.9,122.1L14.9,122.1c0.4,0.3,1,0.1,1.3-0.3l8.7-12.6c0.3-0.5,0.2-1-0.2-1.3l0,0c-0.4-0.3-1-0.1-1.3,0.3
				l-8.7,12.6C14.4,121.2,14.5,121.8,14.9,122.1z"/>
			<path class="st31" d="M24.9,108l-7.2,10.5c-0.3,0.5-0.9,0.6-1.3,0.3c-0.1-0.1-0.2-0.1-0.2-0.2l-1.5,2.1c-0.3,0.5-0.2,1,0.2,1.3
				c0.4,0.3,1,0.1,1.3-0.3l8.7-12.6C25.1,108.8,25.1,108.3,24.9,108z"/>
			<path class="st34" d="M29.1,125.8l0.8,0.6c1.2,0.8,3,0.4,3.9-1l0.8-1.2c0.9-1.4,0.7-3.2-0.5-4l-0.8-0.6c-1.2-0.8-3-0.4-3.9,1
				l-0.8,1.2C27.6,123.2,27.9,125,29.1,125.8z"/>
			<path class="st31" d="M28.6,121.8l-1.2,1.8c-0.3,0.4-0.2,1,0.1,1.3l3.8,2.6c0.4,0.3,0.9,0.1,1.2-0.3l1.2-1.8
				c-0.3,0.4-0.9,0.6-1.2,0.3l-3.8-2.6C28.4,122.8,28.3,122.2,28.6,121.8z"/>
		</g>
	</g>
	<g>
		<path class="st26" d="M25.3,130.4c-0.2-1.1,0.1-2.2,0.7-3c0.2-0.3,0.5-0.5,0.7-0.8c0.1-0.1,0.2-0.2,0.4-0.3c0.3-0.1,0.6,0,0.9,0.2
			c0.3,0.2,0.6,0.4,0.8,0.8c0.2,0.5-0.1,0.9-0.6,1.2c0,0-0.1,0.1-0.1,0.1c0,0.1,0,0.2,0.1,0.2c0.2,0.3,0.3,0.7,0.3,1
			c0,0.3-0.3,0.6-0.7,0.5c-0.1,0-0.3-0.1-0.4,0c0,0,0,0.1,0,0.1c0,0.3,0,0.6-0.2,0.8c0,0.1-0.1,0.1-0.2,0.1c-0.1,0-0.1,0-0.2,0
			c-0.2-0.1-0.5-0.2-0.7-0.3"/>
	</g>
	<g>
		<path class="st26" d="M30.9,131.3c-0.1-0.4-0.2-1.1-0.2-1.6c0-1.2-0.7-2.3-1.7-2.9c-0.1,0-0.2-0.1-0.3-0.1c-0.1,0-0.2,0.1-0.2,0.3
			s0,0.2,0.1,0.4c0.1,0.4,0.6,1.1,0.5,1.4c-0.2,0.6-0.4,1.2-0.4,1.8c0,0.5,0.3,1.4,0.9,1.5"/>
	</g>
	<line class="st35" x1="16.2" y1="102.2" x2="18.8" y2="108.2"/>
	<line class="st35" x1="10.9" y1="107.6" x2="16.1" y2="111.5"/>
	<line class="st35" x1="7.5" y1="114.8" x2="14" y2="115.5"/>
</g>
<rect x="100.6" y="91.6" class="st17" width="156.4" height="11.8"/>
<g>
	<path class="st36" d="M237.9,97.4c0,0.8-0.7,1.5-1.5,1.5s-1.5-0.7-1.5-1.5c0-0.8,0.7-1.5,1.5-1.5S237.9,96.6,237.9,97.4z"/>
	<path class="st36" d="M243.9,97.4c0,0.8-0.7,1.5-1.5,1.5c-0.8,0-1.5-0.7-1.5-1.5c0-0.8,0.7-1.5,1.5-1.5
		C243.3,96,243.9,96.6,243.9,97.4z"/>
	<path class="st36" d="M249.9,97.4c0,0.8-0.7,1.5-1.5,1.5c-0.8,0-1.5-0.7-1.5-1.5c0-0.8,0.7-1.5,1.5-1.5
		C249.3,96,249.9,96.6,249.9,97.4z"/>
</g>
<path class="st9" d="M258.7,83.4h-26.8c0.2,8.7,0.3,17.4,0.4,26c0,1.3,0,2.7-0.5,3.9c0,0,0,0,0,0c-0.4,0-0.2,0.1-0.3,0.7
	c0,0,0,0,0,0c-1.1,1.8-3.2,2.7-5.3,3.2c0,0.1,0,0.2,0,0.3c-0.2,0.2-0.3,0.5-0.2,0.8c0.1,0.3,1.7,0.7,3.8,0.5
	c0.6-0.1,1.8-0.4,2.3-0.6c0.3-0.2,0.6-0.4,0.9-0.6c0.3,0,0.5-0.1,0.8-0.2l0.1,0.1l2.4-1c0,0-0.3-1.5-0.5-2.3c0-0.2-0.1-0.3-0.2-0.4
	c2-5.4,3.6-11,4.7-16.7c-0.4,7.1-3,21.4-3.2,21.9c-0.3,0.8-1.4,2-3,2.1c-0.6,0-3.4-0.1-3.1,1.2c0.1,0.3,1.5,1,3.6,1.1
	c0.6,0,1.8-0.1,2.4-0.2c0.8-0.2,1.5-0.8,1.5-0.8l0.3,0.4l2.5-0.6c0,0,0-0.7,0-1.5c0-0.8-0.5-1.5-0.5-1.5l0-1.4l1.4-0.2
	c0,0,2.8-9.1,4.2-12.3c0.6-1.3,1.2-2.5,1.5-3.9c0.4-1.6,0.5-3.2,0.6-4.9c0.2-3,0.8-5.9,1.6-8.8c0.1-0.2,0.1-0.4,0.2-0.5
	c0.2-0.2,0.6-0.3,0.9-0.3c3.6-0.3,5.2,0.3,7.5-0.4c3-0.9,3.3-2.3,3.4-2.3C261.2,83.7,260,83.4,258.7,83.4z"/>
<path class="st26" d="M217.9,51c0,0-2.3-1.6-2.4-2.3c-0.1-0.7-1.7-3.5-2.2-4c-0.5-0.6-3.3-1.5-3.8-1.6c-0.6-0.1-3.9,0.2-3.5,0.7
	c0.4,0.5,2.6,0.3,3,0.5c0.4,0.2,0.4,0.2,0.4,0.2s-0.4,0.6-0.2,0.9c0.2,0.3-0.7,0.9-0.4,1.4c0.3,0.6-0.1,0.5,0.2,1.2
	c0.5,1,1.8,1.6,2.1,1.3c0.2,0.6,1.2,1.8,2.1,1.7c0.9-0.1,3.1,2,3.1,2"/>
<g>
	<path class="st26" d="M253.5,39.3c0.1,1.6,0,4.3,0.4,4.7s1.9,0.3,1.9,0.3s-5.2,6.5-5.6,6.2c-0.5-0.4-6.6-5.3-5.2-5.6
		c1.4-0.3,2.7-0.2,2.7-0.9c0-0.7-0.1-1.4-0.1-2.1"/>
</g>
<path class="st13" d="M259.3,74.3c0,0-10.1,1.1-12.4,1.2c-2.3,0-2.2-1.2-2.2-1.2c-0.1-2.6-0.6-8.6-1-10.6c-0.4-1.9-0.6-2.6-1-4.4
	c-0.9-4-0.8-4.8-1.7-9.8l6-4.8c0,0,0.6,1.9,3.1,1.9c3.4,0,4.4-2.3,4.4-2.3l8.2,5.5l0.8,13.3l-1,10.9"/>
<g>
	<path class="st26" d="M253.6,37.9c-0.2,0.8-0.4,1.6-0.7,2.3c-0.5,1.4-1.3,1.9-2.8,1.9c-1,0-2.1,0-3.1,0.1c-0.8,0-1.8,0-2.4-0.5
		c-0.6-0.5-0.6-1.5-0.8-2.2c-0.2-1-0.3-2-0.4-2.9c-0.2-1.9-0.3-3.9-0.3-5.8c0-0.3,0-0.5,0.1-0.8c0-0.1,0.1-0.2,0.1-0.3
		c0.1-0.1,0.2-0.1,0.4-0.1c1.9-0.3,3.9-0.4,5.8-0.4c1.4,0,2.8,0.2,3.9,1c1.1,0.8,1.6,2.2,2.1,3.5c0.1,0.2,0.1,0.5-0.1,0.6"/>
</g>
<g>
	<g>
		<path class="st37" d="M230.9,110.2c0,0,0.3,2,0.6,2.7c0.3,0.7,2.5,0.1,2.7-0.4c0.1-0.4-0.7-3.7-0.7-3.7"/>
		<path class="st38" d="M235,113.1c0.2,0.7,0.4,2.2,0.4,2.2l-2.2,1l-0.4-0.3c0,0-0.6,0.7-1.2,1c-0.5,0.2-1.6,0.5-2.2,0.6
			c-2,0.2-3.4-0.2-3.5-0.4c-0.5-1.1,2.1-1.4,2.6-1.6c1.5-0.4,2.3-1.7,2.5-2.5c0.1-0.6,0-0.7,0.3-0.7c0,0,0.3,0,0.6,0.3
			c0.4,0.4,1,0.6,1.6,0.4c0.3-0.1,0.6-0.4,0.8-0.7C234.2,112.3,234.8,112.4,235,113.1z"/>
	</g>
	<g>
		<g>
			<path class="st24" d="M240.9,84c-3.5,0.7-7.9,0.7-11.5,0.3c0.5,1.4,1.7,3.2,2.2,5.3c1.5,6.6,2.1,15.5,2.5,21c0,0-0.7,1.4-3.1,0.3
				c-3.5-8.7-9.7-26.3-9.6-30.2c0.1-4.9,12.2-6,21.1-7.2"/>
		</g>
		<g>
			<path class="st38" d="M256.4,74.3c2.8,2-15.5,9.7-15.5,9.7c-2,0.4-4,0.6-6,0.6c-0.2-0.4-0.4-0.7-0.4-1.1
				c-0.1-0.5-0.1-1.1-0.1-1.6c-0.2-1-0.9-1.9-1.8-2.5c-0.9-0.5-2-0.8-3-1c-2.5-0.4-6.8-0.1-6.8-0.1c5.5-4.1,16.8-4.6,22-4.9
				C245.7,75,256,74,256.4,74.3z"/>
		</g>
	</g>
	<g>
		<path class="st37" d="M236.7,114.9c0,0,0,2,0.1,2.8c0.1,0.7,2.5,0.5,2.7,0.1c0.2-0.4-0.1-3.8-0.1-3.8"/>
		<path class="st38" d="M240.2,118.4c0.1,0.8,0.1,2.2,0.1,2.2l-2.4,0.6l-0.3-0.4c0,0-0.7,0.6-1.4,0.8c-0.5,0.1-1.7,0.3-2.2,0.2
			c-2-0.1-3.3-0.7-3.4-1c-0.3-1.2,2.3-1.1,2.9-1.1c1.5-0.1,2.6-1.2,2.9-2c0.2-0.6,0.1-0.7,0.4-0.6c0,0,0.3,0,0.5,0.4
			c0.3,0.5,0.9,0.8,1.5,0.6c0.3-0.1,0.7-0.2,0.9-0.5C239.6,117.5,240.2,117.6,240.2,118.4z"/>
	</g>
	<g>
		<path class="st24" d="M262.5,73.9c0,0-5.6,0.6-12.4,0.4c-1.6,0-13.6,2.3-14.7,4.3c-1.9,3.3,1.2,22.9,0.9,36.9c0,0,1.4,1.2,4,0.1
			c0.6-6.9,4.7-23.1,1.9-30.6c6.6,0.9,11.9,1.7,18-0.2c1.4-0.5,2.5-1.5,3.1-3.3C263.9,79.5,263.5,75.5,262.5,73.9z"/>
	</g>
</g>
<g>
	<path class="st13" d="M246.9,44.6c0,0-1.4,0.1-1.7,0.1c-1.2,0.1-2.4,0.3-3.6,0.7c-1.6,0.6-2.8,2.1-4.1,3.3
		c-1.3,1.1-7.9,7.5-9.2,7.7c-1.2,0.2-12.1-7.2-12.1-7.2l-2.7,2.7c0,0,11.8,10.9,15.3,10.9c1.7,0,11.1-4.9,14.1-6.9L246.9,44.6z"/>
	<path class="st39" d="M229,60.7c-2.4,0.1-13.5-8.3-14.8-9.3l-0.5,0.5c0,0,11.8,10.9,15.3,10.9c1.4,0,8.2-3.4,12.2-5.7l1-0.6
		l-0.6-3.7C241.5,52.8,231.5,60.5,229,60.7z"/>
</g>
<g>
	<path class="st34" d="M217.6,76h27l-4.8-15.8c-0.3-0.9-1.1-1.5-2-1.5h-23.6c-0.9,0-1.6,0.9-1.3,1.7L217.6,76z"/>
	<path class="st23" d="M217.3,76h26.6l-4.8-15.8c-0.3-0.9-1.1-1.5-2-1.5h-23.6c-0.9,0-1.6,0.9-1.3,1.7l4.6,15.1
		C216.8,75.9,217.1,76,217.3,76z"/>
</g>
<g class="st40">
	<path class="st41" d="M258.8,52.2c-1.3,6.1-1.6,10.8-2,15.2c-4.7,1.8-6.6,4.6-11.3,6.6c0,0-3.6-0.6-4,0.8c-0.2,0.8,4.3,1.4,4.3,1.4
		c4.3,0,15.6-3.1,16.3-3.3c0.8-0.2,3-14.6,3.1-22.3c0-1.1,0-2.3-0.7-3.2c-0.4-0.5-0.9-0.8-1.4-1c-3-1.5-5.2-2-8.6-2.2"/>
</g>
<g>
	<path class="st26" d="M246.2,75c-0.5-0.6-1.4-0.7-2.2-0.7c-0.6,0-1.2,0.1-1.8,0.1c-0.3,0-0.6,0.1-0.6,0.4c0,0.3,1.3,0,2,0.2
		c-1.4,0.1-2.8,0.2-4.2,0.1c-0.2,0-0.3,0-0.5,0c-0.2,0.1-0.3,0.2-0.3,0.4c0,0.1,0.1,0.2,0.2,0.3c0.4,0.3,0.9,0.5,1.4,0.6
		c2.1,0.4,4.4,0.3,6.3-0.6"/>
</g>
<g>
	<path class="st13" d="M258.5,52.1c-0.1,6.5-0.6,9.5-0.4,16c-3.3,0.7-7.8,4.4-12.4,6.4c0,0-0.3,0.9,0.2,1.7
		c0.4,0.1,15.6-3.6,16.8-4.7c1.1-1,2.5-13.2,2.6-21c0-1.1,0-2.3-0.7-3.2c-0.4-0.5-0.9-0.8-1.4-1c-3-1.5-5.2-2-8.6-2.2"/>
</g>
<g>
	<path class="st42" d="M231,67.7c0.1,1.4-1.5,2.5-3.7,2.5s-3.9-1.1-4-2.5c-0.1-1.4,1.5-2.5,3.7-2.5C229.1,65.2,230.9,66.3,231,67.7z
		"/>
	
		<ellipse transform="matrix(3.895856e-02 -0.9992 0.9992 3.895856e-02 150.7128 292.0728)" class="st34" cx="227.2" cy="67.7" rx="1.4" ry="2.4"/>
</g>
<path class="st43" d="M248.8,33.8c-0.1-0.2-0.6-0.3-1.1-0.2c-0.5,0.1-2,0.2-2.3,0.5c-0.3,0.2-0.3,0.4-0.4,0.4
	c-0.2,0-0.2-0.1-0.5-0.3c-0.3-0.2-1.2,0-1.7,0c-0.5,0.1-1.1,0.2-1,0.4c0,0.2,0.1,0.7,0.2,0.7c0.1,0.1,0.1,0.1,0.5,1
	c0.2,0.5,0.6,0.9,1.3,0.7c0.9-0.2,0.9-1.2,1-1.6c0.1-0.4,0.1-0.5,0.3-0.5c0.1,0,0.2,0,0.4,0.4c0.2,0.4,0.3,1.3,1.2,1.4
	c1.2,0.1,1.7-0.3,1.9-1.1c0.2-1,0.2-1,0.3-1.1c0,0,0.9,0.1,0.9,0.1l0-0.3C249.6,34.3,248.8,33.8,248.8,33.8z M244.5,35.9
	c0,0.5-0.3,1-0.9,1.1c-0.5,0.1-0.8-0.2-1.1-0.9c-0.3-0.6-0.3-1.1-0.2-1.3c0.1-0.2,0.4-0.2,1.1-0.2c0.7,0,0.9-0.1,1,0.2
	C244.4,34.9,244.5,35.3,244.5,35.9z M248.4,35.3c-0.1,0.8-0.4,1.1-1.1,1.2c-1.1,0.1-1.3-0.3-1.4-0.8c-0.2-0.5-0.2-0.9-0.2-1
	c0-0.3,0.3-0.4,0.9-0.5c0.7-0.1,1.6-0.3,1.7-0.1S248.5,34.6,248.4,35.3z"/>
<g>
	<path class="st43" d="M256,32.1c-0.1-0.6-0.2-1.1-0.3-1.6c-0.4-1.4-1.2-2.6-2.5-3.3c-1.6-0.9-3.9-1.1-5.6-0.6
		c-1,0.3-1.4,0.8-1.9,0.8c-0.4,0-0.9-0.3-1.4-0.5c-4-1.5-3.4,2.5-2.9,3.6c0.2,0.5,1.1,0.8,1.2,1c0.1,0.2,0.1,1.2,0.2,1.6
		c0.1,0.4,0.5,0.6,0.5,0.6s0-1.3,0-1.4c0.1-0.5,0.2-0.9,0.6-1.2c0.4-0.3,1-0.3,1.5-0.4c0.5-0.1,2.8,0.4,3,0.5c0.8,0.6,0.9,2.1,1.2,3
		c0.1,0.4,0.2,0.7,0.4,0.7c0.1-1.2,0.5-1.2,1.3-0.8c0.4,0.2,0.6,1,0.6,1.6c0,0.8-0.4,1.6-1.2,1.8c-0.3,0.1,0.6,1.7,1,2.1
		c0.1,0.1,0.3,0.3,0.4,0.4c0.1,0.1,0.3,0.1,0.5,0.2c0.2,0.1,0.4,0.1,0.6,0.2c0.3,0.1,0.5,0.1,0.8,0.1c0.4-0.1,0.7-0.6,0.8-1
		c0.3-0.7,0.7-1.3,0.9-2C256.1,35.8,256.2,33.9,256,32.1z"/>
</g>
<line class="st15" x1="312.7" y1="124.5" x2="319.8" y2="124.5"/>
<line class="st15" x1="312.7" y1="128.4" x2="319.8" y2="128.4"/>
<g>
	<g>
		<polyline class="st13" points="278.6,230.9 276.5,235.6 274.7,229.7 		"/>
	</g>
	<path class="st13" d="M285.3,216c3.2,4,2.4,10-1.8,13.4c-4.2,3.4-10.3,3-13.5-1c-3.2-4-2.4-10,1.8-13.4
		C276,211.6,282,212.1,285.3,216z"/>
</g>
<line class="st15" x1="281" y1="219.6" x2="274.6" y2="226"/>
<line class="st15" x1="274.8" y1="219.4" x2="280.9" y2="226.1"/>
</svg>
