<?xml version="1.0" encoding="utf-8"?>
<!-- Generator: Adobe Illustrator 22.0.1, SVG Export Plug-In . SVG Version: 6.00 Build 0)  -->
<svg version="1.1" id="Layer_1" xmlns="http://www.w3.org/2000/svg" xmlns:xlink="http://www.w3.org/1999/xlink" x="0px" y="0px"
	 viewBox="0 0 100 80.7" style="enable-background:new 0 0 100 80.7;" xml:space="preserve">
<style type="text/css">
	.st0{fill:#E7F3FE;}
	.st1{fill:#303C60;}
	.st2{fill:#E38540;}
	.st3{fill:#6791C9;}
	.st4{clip-path:url(#SVGID_2_);fill:#75A1DE;}
	.st5{clip-path:url(#SVGID_2_);fill:#6791C9;}
	.st6{fill:#2E5B9A;}
	.st7{fill:#F09959;}
	.st8{fill:#75A1DE;}
	.st9{fill:#9BD6E8;}
	.st10{fill:#7BCEE8;}
	.st11{fill:#D54A41;}
	.st12{fill:#F39892;}
	.st13{fill:#F2E5DE;}
	.st14{fill:#9EC8FF;}
	.st15{fill:#FFFFFF;}
	.st16{fill:#9CD499;}
	.st17{fill:#F37168;}
	.st18{fill:#74B570;}
</style>
<g>
	<path class="st0" d="M37.5,68.1c-23.9-1.4-43-26.6-30.3-41.3c9.8-11.4,23,5.2,35.2-3.2c18.8-12.8,49.3-15.1,53.4,1
		c4,16.2-9.3,41.4-19.3,42.9C66.5,69.1,37.5,68.1,37.5,68.1z"/>
	<path class="st1" d="M40.6,33.9c0.3,6.1,0.2,9.3-2,11.9c-2.2,2.5-8.4,1.9-8.4,1.9s-0.6,8.9-9.3,9.3c-8.6,0.4-9.9-11.1-3.1-14
		c6.4-2.8,8.5-3.6,10.7-10.6c2-6.3,8.4-5.1,9.9-2.5C40,32.5,40.6,33.9,40.6,33.9z"/>
	<path class="st2" d="M37.8,64.8c0,0,4.1,0.8,4.3,0.8c0.2,0,4.7-2,5.1-1.7c0.5,0.3,3.2,1.4,3.7,1.7c0.6,0.3-0.3,0.3-0.8,0.3
		c-0.5,0-3.1-1.1-3.4-0.9c-0.3,0.2,2.3,0.6,2.3,0.8c0,0.2-7,1.8-7.4,1.8c-0.4,0-3.7-0.3-3.7-0.3L37.8,64.8z"/>
	<path class="st3" d="M34.4,42.5c2.2,0.4,3.5,2.8,3.9,4.8C38.7,49.4,34.4,42.5,34.4,42.5z"/>
	<g>
		<defs>
			<path id="SVGID_1_" d="M37.5,68.1c-23.9-1.4-43-26.6-30.3-41.3c9.8-11.4,23,5.2,35.2-3.2c18.8-12.8,49.3-15.1,53.4,1
				c4,16.2-9.3,41.4-19.3,42.9C66.5,69.1,37.5,68.1,37.5,68.1z"/>
		</defs>
		<clipPath id="SVGID_2_">
			<use xlink:href="#SVGID_1_"  style="overflow:visible;"/>
		</clipPath>
		<path class="st4" d="M30.7,41c0,0-4.2,2.8-6.5,4.2c-2.3,1.4,0.8,16.3,1.6,21.9c0.8,5.6,13.9,0.5,13.9,0.5s-0.9-4.7,0.3-12.2
			c0.8-5.4-2.2-8.7-3.9-11.1C31.7,38.4,30.7,41,30.7,41z"/>
		<path class="st5" d="M26.5,45.3c4.9,5.9,6.5,7,5.3,11c-0.9,3.2-1.3,4.3-1.5,5.4c-0.2,1.1,9-0.7,9-0.7l-0.1,3.5
			c0,0-7.3,3.5-10.8,4.2c-3.5,0.7-5.7-0.1-5.7-0.1L26.5,45.3z"/>
	</g>
	<path class="st6" d="M87.4,69H29.9c-0.4,0-0.8-0.3-0.8-0.8c0-0.4,0.3-0.8,0.8-0.8h57.5c0.4,0,0.8,0.3,0.8,0.8
		C88.1,68.7,87.8,69,87.4,69z"/>
	<path class="st7" d="M32.3,35l-2.2,6.5c0,0,2.4,6.5,4.4,5c0.7-0.5-0.3-4.4-0.3-4.4l1.5-5.3L32.3,35z"/>
	<path class="st7" d="M25.3,45c-3,0.3-3.3,4.4-4.7,11.2c-1.4,6.8-1,11.3-0.3,12.2c1.6,2.1,19.3-5.2,21.5-5.1c1.5,0,0.3-2.5,0.3-2.5
		l-16.9,2.6c0,0,2.4-7.9,2.4-11.9C27.5,47.4,26.4,44.9,25.3,45z"/>
	<path class="st7" d="M41,60.9c1.8-0.4,4.4-1.5,4.9-1c0.5,0.4,2.6,3.6,3.3,4.5c0.7,0.9-0.3,0.2-1.1-0.5c-0.8-0.7-1.4-1.1-1.4-1.1
		s-0.9,0.9-1.8,1.4c-0.9,0.5-1.2-0.5-2.7-0.8c-1.5-0.3-5.3,1.1-5.3,1.1L41,60.9z"/>
	<path class="st8" d="M25.6,44.5c-1.9,0.1-3.3,1.6-3.8,4c-0.5,2.4-2,10-2,10s-0.3,0.2,2.8,0.8c3.1,0.5,5.6-0.1,5.6-0.1
		s0.6-4.3,0.5-7.3c-0.2-3-0.8-5.8-1.9-6.8C25.7,44.2,25.6,44.5,25.6,44.5z"/>
	<path class="st2" d="M34.2,42.1l1.5-5.3L32.3,35l-0.5,1.6c-0.1,5.2,1.2,7,2.1,7.6c0.3,0.2,0.5,0,0.7-0.3
		C34.4,42.9,34.2,42.1,34.2,42.1z"/>
	<path class="st7" d="M41.2,35.6c0,2.8-0.3,6.3-2.8,6.2c-3.8-0.1-6.2-3.1-6.2-5.9c0-2.8,2-5.1,4.4-5.1
		C39.2,30.8,41.2,32.8,41.2,35.6z"/>
	<path class="st9" d="M69.5,67.5H55.3l5.8-12.8c0.2-0.4,0.5-0.6,1-0.6H75c0.3,0,0.5,0.3,0.4,0.6L69.5,67.5z"/>
	<path class="st9" d="M69.5,67.5H43.3c0-0.9,0.7-1.7,1.7-1.7h24.5V67.5z"/>
	<path class="st10" d="M75,54.1H63.6c-0.4,0-0.8,0.2-1,0.6l-5.8,12.8h12.7l5.9-12.9C75.5,54.4,75.3,54.1,75,54.1z"/>
	<path class="st1" d="M37.1,29.8c2.7-0.2,4.3,2.3,4.7,4.4c0.3,1.5,0.2,1.9,0.2,1.9s-0.3,0.4-2.4,0.5c-2.1,0.1-2.4,0.1-2.4,0.1
		l-0.1-2.4l-0.6,2.4c0,0-0.3,0.5-1.6-0.2c-1.3-0.6-1.9-2.7-1.9-2.7s-0.3-1.4,0.7-2.3C34.7,30.5,37.1,29.8,37.1,29.8z"/>
	<path class="st11" d="M35.1,36.2c-0.3,1.7-1.6,2.9-3,2.7c-1.4-0.2-2.4-1.8-2.1-3.5c0.3-1.7,1.6-2.9,3-2.7
		C34.4,32.9,35.3,34.5,35.1,36.2z"/>
	<path class="st12" d="M34.1,36.1c-0.2,1.6-1.4,2.7-2.5,2.5c-1.1-0.2-1.9-1.6-1.6-3.2c0.2-1.6,1.4-2.7,2.5-2.5
		C33.6,33.1,34.3,34.5,34.1,36.1z"/>
	<path class="st13" d="M32.3,35.8c-0.1,0.9-0.6,1.5-1.1,1.4c-0.5-0.1-0.7-0.8-0.6-1.7c0.1-0.9,0.6-1.5,1.1-1.4
		C32.2,34.1,32.4,34.9,32.3,35.8z"/>
	<path class="st11" d="M32.2,32.7c1.2-4.6,5.5-3.9,6.6-3.3c0.9,0.5,1,1.3,1,1.3s-1.2-0.9-3.2-0.6c-1.9,0.3-3,1.4-3.2,2.7
		C33.4,33.5,32.2,32.7,32.2,32.7z"/>
	<g>
		<path class="st1" d="M13.4,47.5C13.4,47.5,13.4,47.5,13.4,47.5c-0.1,0-0.1-0.1-0.1-0.1c0.1-1.2,0.7-2.3,1.6-3.3
			c1.1-1.1,2.6-2,4.4-2.6c4-1.2,7.5-2.8,9.7-9.6c0-0.1,0.1-0.1,0.1-0.1c0.1,0,0.1,0.1,0.1,0.1c-1,3.1-2.4,5.4-4.2,6.9
			c-1.6,1.4-3.4,2.1-5.6,2.8c-1.8,0.5-3.2,1.4-4.3,2.5C14.1,45.2,13.6,46.3,13.4,47.5C13.5,47.5,13.4,47.5,13.4,47.5z"/>
	</g>
	<g>
		<path class="st1" d="M15.2,42.8C15.1,42.8,15.1,42.8,15.2,42.8c-0.1-0.1-0.1-0.1-0.1-0.2c0,0,1.7-1.3,4.2-1.9
			c4.8-1,7.9-3.9,9.2-8.3c0-0.1,0.1-0.1,0.1-0.1c0.1,0,0.1,0.1,0.1,0.1c-0.8,2.7-2.3,4.8-4.4,6.3c-1.4,1-3,1.7-4.9,2.1
			C16.9,41.5,15.3,42.8,15.2,42.8C15.2,42.8,15.2,42.8,15.2,42.8z"/>
	</g>
	<g>
		<path class="st14" d="M76.1,41.4H63.3c-0.1,0-0.2-0.1-0.1-0.2l2.6-7.1c0-0.1,0.2-0.2,0.3-0.2h12.8c0.1,0,0.2,0.1,0.1,0.2l-2.6,7.1
			C76.3,41.3,76.2,41.4,76.1,41.4z"/>
		<path class="st15" d="M75.9,41.1H63.7c-0.1,0-0.2-0.1-0.1-0.2l2.4-6.5c0-0.1,0.2-0.2,0.3-0.2h12.3c0.1,0,0.2,0.1,0.1,0.2l-2.4,6.5
			C76.2,41,76,41.1,75.9,41.1z"/>
		<path class="st14" d="M75.7,40.7H64.2c-0.1,0-0.2-0.1-0.1-0.2l2-5.6c0-0.1,0.2-0.2,0.3-0.2h11.5c0.1,0,0.2,0.1,0.1,0.2l-2,5.6
			C76,40.6,75.8,40.7,75.7,40.7z"/>
		<ellipse transform="matrix(0.7678 -0.6407 0.6407 0.7678 -7.6206 54.2713)" class="st15" cx="71.1" cy="37.6" rx="2.5" ry="1.8"/>
		<path class="st14" d="M72.9,37.6c-0.4,1-1.5,1.8-2.5,1.8c-1,0-1.5-0.8-1.2-1.8c0.4-1,1.5-1.8,2.5-1.8
			C72.7,35.8,73.2,36.6,72.9,37.6z"/>
		<polygon class="st15" points="72,37.6 71.2,37.9 70.4,38.3 70.7,37.6 70.9,36.8 71.5,37.2 		"/>
		<g>
			<path class="st16" d="M56.7,33.4h-1c-0.2,0-0.4-0.1-0.5-0.2c-0.1-0.2-0.1-0.4-0.1-0.6l0.4-1c0.1-0.4,0.6-0.7,1-0.7h1
				c0.2,0,0.4,0.1,0.5,0.2c0.1,0.2,0.1,0.4,0.1,0.6l-0.4,1C57.5,33.1,57.1,33.4,56.7,33.4z M56.5,31.3c-0.2,0-0.5,0.2-0.6,0.4
				l-0.4,1c0,0.1,0,0.2,0,0.2c0,0.1,0.1,0.1,0.2,0.1h1c0.2,0,0.5-0.2,0.6-0.4l0.4-1c0-0.1,0-0.2,0-0.2c0-0.1-0.1-0.1-0.2-0.1H56.5z"
				/>
		</g>
		<g>
			<path class="st16" d="M55.1,37.7h-1c-0.2,0-0.4-0.1-0.5-0.2c-0.1-0.2-0.1-0.4-0.1-0.6l0.4-1c0.1-0.4,0.6-0.7,1-0.7h1
				c0.2,0,0.4,0.1,0.5,0.2c0.1,0.2,0.1,0.4,0.1,0.6l-0.4,1C55.9,37.4,55.5,37.7,55.1,37.7z M54.9,35.5c-0.2,0-0.5,0.2-0.6,0.4
				l-0.4,1c0,0.1,0,0.2,0,0.2c0,0.1,0.1,0.1,0.2,0.1h1c0.2,0,0.5-0.2,0.6-0.4l0.4-1c0-0.1,0-0.2,0-0.2c0-0.1-0.1-0.1-0.2-0.1H54.9z"
				/>
		</g>
		<g>
			<path class="st14" d="M53.6,42h-1c-0.2,0-0.4-0.1-0.5-0.2c-0.1-0.2-0.1-0.4-0.1-0.6l0.4-1c0.1-0.4,0.6-0.7,1-0.7h1
				c0.2,0,0.4,0.1,0.5,0.2c0.1,0.2,0.1,0.4,0.1,0.6l-0.4,1C54.4,41.7,54,42,53.6,42z M53.3,39.8c-0.2,0-0.5,0.2-0.6,0.4l-0.4,1
				c0,0.1,0,0.2,0,0.2c0,0.1,0.1,0.1,0.2,0.1h1c0.2,0,0.5-0.2,0.6-0.4l0.4-1c0-0.1,0-0.2,0-0.2c0-0.1-0.1-0.1-0.2-0.1H53.3z"/>
		</g>
		<path class="st14" d="M65,32.6h-5.6c-0.1,0-0.2-0.1-0.1-0.2c0-0.1,0.2-0.2,0.3-0.2h5.6c0.1,0,0.2,0.1,0.1,0.2
			C65.2,32.5,65.1,32.6,65,32.6z"/>
		<path class="st14" d="M64.7,33.3h-5.6c-0.1,0-0.2-0.1-0.1-0.2c0-0.1,0.2-0.2,0.3-0.2h5.6C65,33,65,33,65,33.1
			C64.9,33.2,64.8,33.3,64.7,33.3z"/>
		<path class="st14" d="M63.6,36.6H58c-0.1,0-0.2-0.1-0.1-0.2c0-0.1,0.2-0.2,0.3-0.2h5.6c0.1,0,0.2,0.1,0.1,0.2
			C63.8,36.5,63.7,36.6,63.6,36.6z"/>
		<path class="st14" d="M63.3,37.3h-5.6c-0.1,0-0.2-0.1-0.1-0.2c0-0.1,0.2-0.2,0.3-0.2h5.6c0.1,0,0.2,0.1,0.1,0.2
			C63.5,37.2,63.4,37.3,63.3,37.3z"/>
		<path class="st14" d="M61.9,41h-5.6c-0.1,0-0.2-0.1-0.1-0.2c0-0.1,0.2-0.2,0.3-0.2h5.6c0.1,0,0.2,0.1,0.1,0.2
			C62.2,40.9,62,41,61.9,41z"/>
		<path class="st14" d="M61.7,41.7h-5.6c-0.1,0-0.2-0.1-0.1-0.2c0-0.1,0.2-0.2,0.3-0.2h5.6c0.1,0,0.2,0.1,0.1,0.2
			C61.9,41.6,61.8,41.7,61.7,41.7z"/>
		<g>
			<path class="st17" d="M56.5,32.8C56.4,32.8,56.4,32.8,56.5,32.8c-0.1,0-0.2-0.1-0.2-0.1l-0.4-0.9c0-0.1,0-0.2,0.1-0.3
				c0.1,0,0.2,0,0.3,0.1l0.3,0.7l2.3-1.7c0.1-0.1,0.2,0,0.3,0s0,0.2,0,0.3l-2.5,1.9C56.5,32.8,56.5,32.8,56.5,32.8z"/>
		</g>
		<g>
			<path class="st17" d="M54.9,37.1C54.9,37.1,54.9,37.1,54.9,37.1c-0.1,0-0.2-0.1-0.2-0.1l-0.4-0.9c0-0.1,0-0.2,0.1-0.3
				c0.1,0,0.2,0,0.3,0.1l0.3,0.7l2.3-1.7c0.1-0.1,0.2,0,0.3,0c0.1,0.1,0,0.2,0,0.3L55,37.1C55,37.1,54.9,37.1,54.9,37.1z"/>
		</g>
		<polygon class="st14" points="91.6,27.6 70.3,27.6 70.8,26.1 92.2,26.1 		"/>
		<polygon class="st14" points="90.8,29.9 69.5,29.9 70,28.4 91.3,28.4 		"/>
		<path class="st14" d="M67.1,48H51.5c-0.2,0-0.3-0.2-0.2-0.4c0.1-0.2,0.3-0.4,0.5-0.4h15.7c0.2,0,0.3,0.2,0.2,0.4
			C67.6,47.9,67.3,48,67.1,48z"/>
		<path class="st14" d="M66.5,49.7H50.9c-0.2,0-0.3-0.2-0.2-0.4c0.1-0.2,0.3-0.4,0.5-0.4h15.7c0.2,0,0.3,0.2,0.2,0.4
			C67,49.5,66.7,49.7,66.5,49.7z"/>
	</g>
	<g>
		<path class="st16" d="M81.2,63.7c0-0.3,3.2-9,1-14.6c-1.5-3.9-1.7-8.7-1.7-8.7s-2.9,4.2-0.9,10.6c1.2,3.9,1.7,5,1.8,6.2
			c0.1,1.2-0.5,6.9-0.5,6.9L81.2,63.7z"/>
		<g>
			<path class="st18" d="M80.9,64.1C80.9,64.1,80.9,64.1,80.9,64.1c-0.1,0-0.1-0.1-0.1-0.1c0-0.1,0.6-5.8,0.5-6.9
				c-0.1-0.8-0.3-1.5-0.8-3c-0.3-0.8-0.6-1.8-1-3.1c-1-3.3-0.7-6-0.3-7.7c0.5-1.8,1.2-2.9,1.2-2.9c0,0,0.1,0,0.1,0
				c0,0,0.1,0,0.1,0.1c0,0,0.3,4.8,1.7,8.6c0.8,2.1,1,4.9,0.5,8.3c-0.4,2.7-1.1,5-1.4,6c-0.1,0.2-0.1,0.4-0.1,0.5c0,0,0,0,0,0.1
				L80.9,64.1C80.9,64.1,80.9,64.1,80.9,64.1z M80.4,40.7c-0.2,0.4-0.7,1.3-1,2.6c-0.4,1.7-0.7,4.3,0.3,7.6c0.4,1.3,0.7,2.3,1,3.1
				c0.5,1.6,0.8,2.3,0.8,3.1c0.1,1-0.3,5.4-0.4,6.7l0.1-0.1c0-0.1,0-0.2,0.1-0.5c1.8-6.1,2.1-10.9,0.9-14.1
				C80.9,45.7,80.5,41.8,80.4,40.7z"/>
		</g>
		<path class="st16" d="M81.9,64.6c-0.5-9.7,1.8-15,6.6-19.2c4.7-4.2,4.9-5.3,4.9-5.3s-0.7,8.2-3.5,11c-2.7,2.8-6.7,4.9-7.3,6.4
			c-0.6,1.5-0.4,6.4-0.4,6.4l-0.4,0.9V64.6z"/>
		<path class="st16" d="M81.3,65.4c-0.1-0.2,1-9.1,4.8-9.6c3.8-0.5,4.7,0.4,7.4-0.1c1.9-0.3,3.3-0.9,3.3-0.9s-1,2.5-4.4,3.6
			c-2.4,0.7-5.6-0.5-7.4-0.2c-1.8,0.3-2.8,4.3-2.8,4.3l-0.3,2.1L81.3,65.4z"/>
		<g>
			<path class="st18" d="M81.8,64.1C81.8,64.1,81.7,64,81.8,64.1c-0.1-0.2-0.6-6.4,2-11.2c1.4-2.5,2.9-3.9,4.3-5.3
				c1.4-1.3,2.6-2.5,3.6-4.5c0,0,0.1-0.1,0.1,0c0,0,0.1,0.1,0,0.1c-1,2-2.3,3.2-3.6,4.5c-1.4,1.4-2.9,2.8-4.3,5.3
				c-2.6,4.8-2.1,11-2.1,11C81.9,64,81.9,64.1,81.8,64.1C81.8,64.1,81.8,64.1,81.8,64.1z"/>
		</g>
		<g>
			<path class="st18" d="M81.6,62.8C81.6,62.8,81.6,62.8,81.6,62.8c-0.1,0-0.1-0.1-0.1-0.1c1-3.5,2.2-5.5,3.6-6.4
				c1.3-0.8,2.7-0.5,4.1-0.3c0.4,0.1,0.7,0.1,1.1,0.2c3.1,0.4,4.7-0.4,4.7-0.4c0,0,0.1,0,0.1,0c0,0,0,0.1,0,0.1
				c-0.1,0-1.6,0.8-4.8,0.4c-0.4,0-0.7-0.1-1.1-0.2c-1.4-0.2-2.7-0.5-4,0.3C83.8,57.3,82.7,59.3,81.6,62.8
				C81.7,62.8,81.6,62.8,81.6,62.8z"/>
		</g>
		<g>
			<path class="st18" d="M86.6,49.3C86.6,49.3,86.5,49.3,86.6,49.3c-0.1-0.1-0.1-0.1-0.1-0.2c0,0,1.9-1.4,4.5-1.9
				c0.1,0,0.1,0,0.1,0.1c0,0.1,0,0.1-0.1,0.1C88.5,47.9,86.7,49.3,86.6,49.3C86.6,49.3,86.6,49.3,86.6,49.3z"/>
		</g>
		<g>
			<path class="st18" d="M83.6,53.6C83.6,53.6,83.6,53.6,83.6,53.6c-0.1,0-0.1-0.1-0.1-0.1c1.4-2.3,3-2.9,6.5-4c0.1,0,0.1,0,0.1,0.1
				c0,0.1,0,0.1-0.1,0.1C86.6,50.7,85,51.3,83.6,53.6C83.7,53.5,83.7,53.6,83.6,53.6z"/>
		</g>
		<path class="st12" d="M82.8,67.8h-2.3c-0.8,0-1.5-0.6-1.7-1.4l-0.8-4h7.3l-0.8,4C84.3,67.2,83.6,67.8,82.8,67.8z"/>
		<g>
			<path class="st11" d="M85,63.4h-6.8c-0.1,0-0.2-0.1-0.2-0.2c0-0.1,0.1-0.2,0.2-0.2H85c0.1,0,0.2,0.1,0.2,0.2
				C85.2,63.3,85.1,63.4,85,63.4z"/>
		</g>
	</g>
</g>
</svg>
