<?xml version="1.0" encoding="utf-8"?>
<!-- Generator: Adobe Illustrator 22.0.1, SVG Export Plug-In . SVG Version: 6.00 Build 0)  -->
<svg version="1.1" id="Layer_1" xmlns="http://www.w3.org/2000/svg" xmlns:xlink="http://www.w3.org/1999/xlink" x="0px" y="0px"
	 viewBox="0 0 100 80.7" style="enable-background:new 0 0 100 80.7;" xml:space="preserve">
<style type="text/css">
	.st0{fill:#E7F3FE;}
	.st1{fill:#75A1DE;}
	.st2{fill:#F09959;}
	.st3{fill:#E38540;}
	.st4{fill:#A2DFF2;}
	.st5{fill:#96CFE0;}
	.st6{fill:#FFFFFF;}
	.st7{fill:#6791C9;}
	.st8{fill:#95BEF5;}
	.st9{fill:#2E5B9A;}
	.st10{opacity:0.5;fill:#2E5B9A;}
	.st11{fill:#9EC8FF;}
	.st12{fill:#F39892;}
	.st13{fill:#9CD499;}
	.st14{fill:#74B570;}
</style>
<g>
	<path class="st0" d="M16.1,68.3c0,0-19.3-34.7-4.8-42.8c11.5-6.5,21.6,4.8,33.9-3c15.9-10.2,28-3.4,36.6,9.3
		c6.5,9.5,9.9,15.6,13.1,23c5.1,11.5-5.7,14.1-5.7,14.1L16.1,68.3z"/>
	<path class="st1" d="M69.4,68.6l-8.8,0c-0.1,0-0.2-0.1-0.2-0.3c0-0.2,0.1-0.3,0.2-0.3l8.8-0.8c0.7-0.1,1.4,0.2,1.4,0.6
		C70.7,68.2,70.1,68.6,69.4,68.6z"/>
	<g>
		<path class="st2" d="M58,67.3c0.3-0.1,0.9-1.7,0.9-1.7s-6.3-2.1-9-3.5l-3.8,4.3C50.9,67.6,57.8,67.4,58,67.3z"/>
		<path class="st2" d="M57,64.9c1.6,0.4,4-0.6,4.5-0.5c0.5,0.1,2.4,1.1,2.9,1.6c0.5,0.5,2.1,2.1,1.8,2.2c-0.3,0.1-2.4-1.4-2.6-1.5
			c-0.3-0.1-0.4,0.3-2.4,0.7c-2.1,0.4-4.6-0.6-4.6-0.6L57,64.9z"/>
		<path class="st3" d="M59.5,66.5c0,0,2.4-0.6,2.7-0.5c0.3,0.1,2.1,0.5,3.3,1.9c-1.2-0.4-2.9-0.5-3.3-0.5
			C61.8,67.5,59.5,66.5,59.5,66.5z"/>
		<path class="st2" d="M60.1,65.5c1,1.3,3.6,1.7,4,2.2c0.4,0.5-1,0.3-1.7,0.2c-1.8-0.2-3.1,0.6-4.5,0.1c-1.5-0.5-1.8-1.5-1.8-1.5
			L60.1,65.5z"/>
	</g>
	<path class="st4" d="M40.8,42.2c-4.6,2.3-6.8,3.9-8.2,10.2c-1.4,6.2-1.5,12.1-0.8,16.5c5.1,0.1,19.9,0.7,19.9,0.7s-0.3-9-1.8-16.2
		c-1.4-6.8-3.5-9.5-5.2-10.7C43,41.5,40.8,42.2,40.8,42.2z"/>
	<path class="st5" d="M41.9,63.3c-1.7-1.7-1.2-13-3.9-18l-5.1,9.5l-1.5,7.9c0,2.3,0.2,4.4,0.5,6.2c0,0.1,0.1,0.2,0.2,0.2
		c4.2-0.4,4.4-2.2,17.8-4.2C50.2,64.8,43.1,64.4,41.9,63.3z"/>
	<path class="st6" d="M40.4,42.2c-0.6,1.4,0.6,3.2,2.5,4.6c1.9,1.4,3,0.6,2.9-0.5c-0.1-1.1-0.2-2.3-0.6-3c-0.4-0.7-3.9-1.3-3.9-1.3
		S40.5,41.9,40.4,42.2z"/>
	<path class="st2" d="M42.6,35.3l-1.8,6.9c-0.2,0.5-0.1,1,0.1,1.4c0.7,1.2,2.3,3.5,3.4,3.2c1.5-0.4,0.5-3.2,0.5-3.2l2-7.1L42.6,35.3
		z"/>
	<path class="st3" d="M45.4,35.7L43.6,35L43,36.4c0.2,6,1,8.4,2.2,9.1c0.1-0.9-0.3-2-0.3-2l1.5-5.3L45.4,35.7z"/>
	<path class="st2" d="M50.4,38.4c-0.4,2.4-1.3,4.4-3,4.2c-1.7-0.3-4.6-2.2-4.3-4.6c0.4-2.4,4.2-5.2,5.8-5
		C50.7,33.3,50.7,36,50.4,38.4z"/>
	<path class="st2" d="M37.5,47.3c0.1-0.5-2-0.9-2.4-0.4c-3.4,4.3-8.7,16-7.5,18.1c1.4,2.4,16.1-0.8,16.4-0.8
		c0.3-0.1-0.5-2.3-0.5-2.3s-8.2,0.2-9.6-0.8C38.2,52.9,36.5,51.4,37.5,47.3z"/>
	<path class="st4" d="M36.6,44.9c-3.6,1.6-7.4,12-7.4,12s0.9,0.2,3.9,1.2c1.2,0.4,2.4,0.8,2.4,0.8s2.8-3.7,3.7-6.5
		C40.4,48.6,38.8,43.9,36.6,44.9z"/>
	<g>
		<path class="st6" d="M29.6,55.9c3.3,0.4,5.3,1.6,6.3,2.4c0.2-0.2,0.3-0.5,0.5-0.8c-0.7-0.7-2.2-1.8-4.4-2.1
			c-0.9-0.1-1.6-0.2-2.1-0.3C29.8,55.4,29.7,55.7,29.6,55.9z"/>
		<path class="st6" d="M30.4,54.1c-0.1,0.1-0.1,0.3-0.2,0.4c2.9-0.1,5.7,1.3,6.4,2.2c0.1,0.1,0.2,0.2,0.2,0.3
			c0.1-0.1,0.1-0.2,0.2-0.3c-0.5-0.5-1.3-1.2-2.2-1.6C33.1,54.2,30.6,54.1,30.4,54.1z"/>
	</g>
	<polygon class="st1" points="50,64.8 46.3,64.8 45.7,57.8 50.6,57.8 	"/>
	<path class="st2" d="M43,61.8c1,0,2.7-1.2,3.3-1.5c0.6-0.3,3.9-1,4-0.7c0.2,0.4-2.8,1.1-2.8,1.1l2.2,0.1c0,0,0.6,1,0.7,1.6
		c0.1,0.6-0.2,1.5-0.2,1.5l-1-0.9c0,0-0.8,0.4-1.8,1c-1,0.6-2.8,0.2-3.5,0.1c-0.8-0.2-2.5-0.7-2.5-0.7L43,61.8z"/>
	<path class="st3" d="M29.5,61.5c0,0,1.7-1,3.4-0.7c1,0.1,1.1,0.3,1,0.3c0.2-0.4,0.4-0.8,0.6-1.1C33.5,59.9,31.3,60.2,29.5,61.5z"/>
	<path class="st7" d="M82.3,49.6v17.2c0,0.6-0.5,1-1.2,1h-3.6c-0.6,0-1.1,0.4-1.1,1h5.2c1.1,0,2-0.8,2-1.7V49.6H82.3z"/>
	<path class="st8" d="M79.7,64.3l-0.6-0.1c-0.4-0.1-0.6-0.4-0.5-0.7L83.1,46c0.1-0.3,0.5-0.5,0.8-0.5l0.6,0.1
		c0.4,0.1,0.6,0.4,0.5,0.7l-4.5,17.5C80.5,64.2,80.1,64.4,79.7,64.3z"/>
	<path class="st1" d="M79.9,64.4L79.9,64.4c-0.4-0.1-0.5-0.3-0.5-0.6l4.6-17.7c0.1-0.3,0.4-0.4,0.6-0.4l0.1,0
		c0.3,0.1,0.5,0.3,0.4,0.6L80.5,64C80.4,64.3,80.2,64.4,79.9,64.4z"/>
	<path class="st9" d="M91.8,69.8H14.6c-0.4,0-0.6-0.3-0.6-0.6c0-0.4,0.3-0.6,0.6-0.6h77.2c0.4,0,0.6,0.3,0.6,0.6
		C92.5,69.5,92.2,69.8,91.8,69.8z"/>
	<path class="st2" d="M43.4,32.3c-3.5,2.2-1.3,4.5-2.2,8.5c0.6,0.2,1.2-0.9,1.6-1.8c0.4-0.9,0.8-2.2,0.9-2.1c0.1,0,0.4,2,0.4,2
		l0.5,0.3c0,0,0.8-1.3,0.7-1.6c0-0.3-0.7-1.8,0.1-2.5c0.5-0.5,2.5,0.5,2.5,0.5l-1.9-2.8L43.4,32.3z"/>
	<path class="st10" d="M43.4,32.3c-3.5,2.2-1.3,4.5-2.2,8.5c0.6,0.2,1.2-0.9,1.6-1.8c0.4-0.9,0.8-2.2,0.9-2.1c0.1,0,0.4,2,0.4,2
		l0.5,0.3c0,0,0.8-1.3,0.7-1.6c0-0.3-0.7-1.8,0.1-2.5c0.5-0.5,2.5,0.5,2.5,0.5l-1.9-2.8L43.4,32.3z"/>
	<path class="st9" d="M51.1,34.7c-0.2,2.1-3.5,1.5-5-0.4c-1.5-1.8-2.7-0.6-4.1,0c-2.4,1,0.3-4.9,5.2-3.9
		C50.9,31,51.2,33.3,51.1,34.7z"/>
	<path class="st2" d="M43.7,36.9c0.2,0.8-0.1,1.5-0.7,1.6c-0.5,0.1-1.1-0.5-1.2-1.3c-0.2-0.8,0.1-1.5,0.7-1.6S43.6,36.2,43.7,36.9z"
		/>
	<g>
		<path class="st11" d="M76.3,41.6h-7.7c-2.8,0-5.1-2.3-5.1-5.1v-0.5c0-2.8,2.3-5.1,5.1-5.1h7.7c2.8,0,5.1,2.3,5.1,5.1v0.5
			C81.3,39.4,79.1,41.6,76.3,41.6z"/>
		<path class="st6" d="M76.5,41.3h-8.1c-2.4,0-4.3-1.9-4.3-4.3v0c0-2.4,1.9-4.3,4.3-4.3h8.1c2.4,0,4.3,1.9,4.3,4.3v0
			C80.8,39.4,78.9,41.3,76.5,41.3z"/>
		<g>
			<path class="st6" d="M64.6,32.2L64.6,32.2c-0.2,0-0.4-0.1-0.4-0.3v0c0-0.2,0.1-0.3,0.3-0.3h0.1c0.2,0,0.3,0.1,0.3,0.3v0
				C64.9,32.1,64.8,32.2,64.6,32.2z"/>
			<path class="st6" d="M65.8,32.2L65.8,32.2c-0.2,0-0.4-0.1-0.4-0.3v0c0-0.2,0.1-0.3,0.3-0.3h0.1c0.2,0,0.3,0.1,0.3,0.3v0
				C66.1,32.1,66,32.2,65.8,32.2z"/>
			<path class="st6" d="M67.1,32.2L67.1,32.2c-0.2,0-0.4-0.1-0.4-0.3v0c0-0.2,0.1-0.3,0.3-0.3h0.1c0.2,0,0.3,0.1,0.3,0.3v0
				C67.4,32.1,67.2,32.2,67.1,32.2z"/>
		</g>
		<g>
			<g>
				<path class="st11" d="M80.2,40.8H64.7v-7.6h15.6V40.8z M64.7,40.8h15.5v-7.5H64.7V40.8z"/>
			</g>
			<g>
				<rect x="64.7" y="39.3" class="st11" width="15.5" height="0.1"/>
			</g>
			<g>
				<rect x="64.7" y="37.8" class="st11" width="15.5" height="0.1"/>
			</g>
			<g>
				<rect x="64.7" y="36.3" class="st11" width="15.5" height="0.1"/>
			</g>
			<g>
				<rect x="64.7" y="34.8" class="st11" width="15.5" height="0.1"/>
			</g>
			<g>
				<rect x="78" y="33.3" class="st11" width="0.1" height="7.5"/>
			</g>
			<g>
				<rect x="75.7" y="33.3" class="st11" width="0.1" height="7.5"/>
			</g>
			<g>
				<rect x="73.5" y="33.3" class="st11" width="0.1" height="7.5"/>
			</g>
			<g>
				<rect x="71.3" y="33.3" class="st11" width="0.1" height="7.5"/>
			</g>
			<g>
				<rect x="69.1" y="33.3" class="st11" width="0.1" height="7.5"/>
			</g>
			<g>
				<rect x="66.9" y="33.3" class="st11" width="0.1" height="7.5"/>
			</g>
		</g>
		<path class="st12" d="M79.6,34.2h-0.5c-0.2,0-0.4-0.2-0.4-0.4c0-0.2,0.2-0.4,0.4-0.4h0.5c0.2,0,0.4,0.2,0.4,0.4
			C80,34.1,79.8,34.2,79.6,34.2z"/>
		<path class="st12" d="M79.6,37.3h-0.5c-0.2,0-0.4-0.2-0.4-0.4l0,0c0-0.2,0.2-0.4,0.4-0.4h0.5c0.2,0,0.4,0.2,0.4,0.4v0
			C80,37.1,79.8,37.3,79.6,37.3z"/>
		<path class="st11" d="M68.3,36.1h-0.6c-0.3,0-0.5-0.2-0.5-0.5l0,0c0-0.3,0.2-0.5,0.5-0.5h0.6c0.3,0,0.5,0.2,0.5,0.5l0,0
			C68.8,35.8,68.6,36.1,68.3,36.1z"/>
		<path class="st6" d="M68.2,35.9h-0.5c-0.2,0-0.4-0.2-0.4-0.4v0c0-0.2,0.2-0.4,0.4-0.4h0.5c0.2,0,0.4,0.2,0.4,0.4l0,0
			C68.6,35.7,68.4,35.9,68.2,35.9z"/>
		<path class="st11" d="M77.2,40.6h-0.6c-0.3,0-0.5-0.2-0.5-0.5l0,0c0-0.3,0.2-0.5,0.5-0.5h0.6c0.3,0,0.5,0.2,0.5,0.5v0
			C77.7,40.3,77.5,40.6,77.2,40.6z"/>
		<path class="st6" d="M77.1,40.4h-0.5c-0.2,0-0.4-0.2-0.4-0.4l0,0c0-0.2,0.2-0.4,0.4-0.4h0.5c0.2,0,0.4,0.2,0.4,0.4v0
			C77.5,40.2,77.3,40.4,77.1,40.4z"/>
		<path class="st11" d="M73.2,35.3h-1c-0.1,0-0.1-0.1-0.1-0.1c0-0.1,0.1-0.1,0.1-0.1h1c0.1,0,0.1,0.1,0.1,0.1
			C73.3,35.2,73.2,35.3,73.2,35.3z"/>
		<path class="st11" d="M73.2,35.7h-1c-0.1,0-0.1-0.1-0.1-0.1c0-0.1,0.1-0.1,0.1-0.1h1c0.1,0,0.1,0.1,0.1,0.1
			C73.3,35.6,73.2,35.7,73.2,35.7z"/>
		<path class="st11" d="M71.1,39.8h-1c-0.1,0-0.1-0.1-0.1-0.1c0-0.1,0.1-0.1,0.1-0.1h1c0.1,0,0.1,0.1,0.1,0.1
			C71.2,39.7,71.1,39.8,71.1,39.8z"/>
		<path class="st11" d="M71.1,40.1h-1C70,40.1,70,40.1,70,40s0.1-0.1,0.1-0.1h1c0.1,0,0.1,0.1,0.1,0.1S71.1,40.1,71.1,40.1z"/>
		<path class="st11" d="M66.1,37h-1c-0.1,0-0.1-0.1-0.1-0.1c0-0.1,0.1-0.1,0.1-0.1h1c0.1,0,0.1,0.1,0.1,0.1
			C66.2,36.9,66.2,37,66.1,37z"/>
		<path class="st11" d="M66.1,37.3h-1c-0.1,0-0.1-0.1-0.1-0.1s0.1-0.1,0.1-0.1h1c0.1,0,0.1,0.1,0.1,0.1S66.2,37.3,66.1,37.3z"/>
		<path class="st11" d="M75.4,35.3h-1c-0.1,0-0.1-0.1-0.1-0.1c0-0.1,0.1-0.1,0.1-0.1h1c0.1,0,0.1,0.1,0.1,0.1
			C75.5,35.2,75.4,35.3,75.4,35.3z"/>
		<path class="st11" d="M75.4,35.7h-1c-0.1,0-0.1-0.1-0.1-0.1c0-0.1,0.1-0.1,0.1-0.1h1c0.1,0,0.1,0.1,0.1,0.1
			C75.5,35.6,75.4,35.7,75.4,35.7z"/>
		<g>
			<path class="st13" d="M68.4,39.1h-0.8c-0.3,0-0.5-0.2-0.5-0.5v0c0-0.3,0.2-0.5,0.5-0.5h0.8c0.3,0,0.5,0.2,0.5,0.5l0,0
				C69,38.9,68.7,39.1,68.4,39.1z"/>
			<g>
				<path class="st6" d="M67.9,38.9C67.9,38.9,67.9,38.9,67.9,38.9C67.9,38.9,67.9,38.9,67.9,38.9l-0.3-0.3c0,0,0-0.1,0-0.2
					c0,0,0.1,0,0.2,0l0.2,0.2l0.5-0.5c0,0,0.1,0,0.2,0c0,0,0,0.1,0,0.2L67.9,38.9C68,38.9,68,38.9,67.9,38.9z"/>
			</g>
		</g>
		<g>
			<path class="st13" d="M75.1,34.5h-0.8c-0.3,0-0.5-0.2-0.5-0.5v0c0-0.3,0.2-0.5,0.5-0.5h0.8c0.3,0,0.5,0.2,0.5,0.5l0,0
				C75.6,34.3,75.4,34.5,75.1,34.5z"/>
			<g>
				<path class="st6" d="M74.6,34.4C74.6,34.4,74.6,34.4,74.6,34.4C74.5,34.4,74.5,34.4,74.6,34.4L74.2,34c0,0,0-0.1,0-0.2
					c0,0,0.1,0,0.2,0l0.2,0.2l0.5-0.5c0,0,0.1,0,0.2,0c0,0,0,0.1,0,0.2L74.6,34.4C74.6,34.4,74.6,34.4,74.6,34.4z"/>
			</g>
		</g>
		<path class="st11" d="M75.1,38.5c0,0.3-0.2,0.5-0.5,0.5c-0.3,0-0.5-0.2-0.5-0.5c0-0.3,0.2-0.5,0.5-0.5
			C74.9,38,75.1,38.3,75.1,38.5z"/>
		<path class="st11" d="M68.6,40.1c0,0.3-0.2,0.5-0.5,0.5s-0.5-0.2-0.5-0.5c0-0.3,0.2-0.5,0.5-0.5S68.6,39.8,68.6,40.1z"/>
	</g>
	<g>
		<path class="st11" d="M71.5,46.2H61.2c-0.1,0-0.2-0.1-0.2-0.2v-5.7c0-0.1,0.1-0.2,0.2-0.2h10.3c0.1,0,0.2,0.1,0.2,0.2V46
			C71.7,46.1,71.6,46.2,71.5,46.2z"/>
		<path class="st6" d="M71.3,45.9h-9.9c-0.1,0-0.2-0.1-0.2-0.2v-5.2c0-0.1,0.1-0.2,0.2-0.2h9.9c0.1,0,0.2,0.1,0.2,0.2v5.2
			C71.5,45.9,71.4,45.9,71.3,45.9z"/>
		<path class="st11" d="M71,45.6h-9.3c-0.1,0-0.2-0.1-0.2-0.2v-4.5c0-0.1,0.1-0.2,0.2-0.2H71c0.1,0,0.2,0.1,0.2,0.2v4.5
			C71.2,45.5,71.1,45.6,71,45.6z"/>
		<circle class="st6" cx="66.4" cy="43.2" r="1.7"/>
		<path class="st11" d="M67.8,43.2c0,0.8-0.7,1.5-1.5,1.5c-0.8,0-1.5-0.7-1.5-1.5s0.7-1.5,1.5-1.5C67.2,41.7,67.8,42.4,67.8,43.2z"
			/>
		<polygon class="st6" points="67.1,43.1 66.5,43.4 66,43.7 66,43.1 66,42.5 66.5,42.8 		"/>
	</g>
	<path class="st11" d="M60.4,25.5h-6.7c-0.2,0-0.3-0.1-0.3-0.3c0-0.2,0.1-0.3,0.3-0.3h6.7c0.2,0,0.3,0.1,0.3,0.3
		C60.7,25.4,60.5,25.5,60.4,25.5z"/>
	<path class="st11" d="M77.8,51.1h-6.7c-0.2,0-0.3-0.1-0.3-0.3c0-0.2,0.1-0.3,0.3-0.3h6.7c0.2,0,0.3,0.1,0.3,0.3
		C78.1,51,77.9,51.1,77.8,51.1z"/>
	<path class="st11" d="M77.8,52.2h-6.7c-0.2,0-0.3-0.1-0.3-0.3c0-0.2,0.1-0.3,0.3-0.3h6.7c0.2,0,0.3,0.1,0.3,0.3
		C78.1,52.1,77.9,52.2,77.8,52.2z"/>
	<path class="st11" d="M77.8,53.4h-6.7c-0.2,0-0.3-0.1-0.3-0.3c0-0.2,0.1-0.3,0.3-0.3h6.7c0.2,0,0.3,0.1,0.3,0.3
		C78.1,53.3,77.9,53.4,77.8,53.4z"/>
	<path class="st11" d="M64.6,26.7h-11c-0.2,0-0.3-0.1-0.3-0.3c0-0.2,0.1-0.3,0.3-0.3h11c0.2,0,0.3,0.1,0.3,0.3
		C64.9,26.5,64.8,26.7,64.6,26.7z"/>
	<path class="st14" d="M17.3,43.5c-1.7,1.6-1,3.2,0.3,6.1c1.3,3,1.5,13.9,1.5,13.9l-1.1-0.2c0,0,0.2-11.2-1.3-14.2
		c-1.4-3-2-4.5-3.3-3.6C12.2,46.5,17.3,43.5,17.3,43.5z"/>
	<path class="st13" d="M18.3,41.4c-0.2-0.9-1.5-2-3.1-2.8c0.2,1.4,1.1,3.7,0.2,4.1c-1.1,0.6-0.1-2.5-0.5-4.3
		c-1.6-0.8-3.5-1.4-5.2-1.7c0,0,0,0,0,0c1,2.5,2.3,3.5,1.7,3.9c-0.4,0.3-1.7-2.6-3.4-4.1c-1.3-0.1-2.4,0.1-3,0.6
		c-1,0.8-1.7,1.5-0.7,3.9c0.6,0.4,1.3,0.7,2.2,0.8c2.3,0.2,3.3,0.3,1.7,1.1c-0.8,0.4-2.1,0-3.1-0.3c0.3,0.6,0.8,1.3,1.3,2.2
		c0.3,0.5,0.7,1,1.1,1.4c0.7,0.1,1.4,0.1,1.7,0c1.1-0.5,3.8-1.9,4.5-1.3c0.7,0.6-5.1,1-4.7,2.5c2.8,1.6,5.9,0.8,6.5-0.6
		C16.1,44.7,18.9,44.2,18.3,41.4z"/>
	<path class="st14" d="M12.6,52.2c3-2.3,6.1-0.2,7.7,2.3c1.6,2.4,0.5,7.9,0.5,7.9s-0.6,0-0.6-0.2c0-0.2,1.7-6.4-2.3-9.2
		c-2.5-1.8-4.2-0.9-4.5-0.1c-0.2,0.8,1,2.3,1,2.3L12.6,52.2z"/>
	<path class="st13" d="M19.5,47.5c-3,0-4,4.7-3.2,7.4c0.8,2.7,2,7.8,2,7.8l0.8-0.8c0,0-2.9-7.1-2.2-10.3c0.7-3.2,2.3-3.7,2.7-3.7
		S19.5,47.5,19.5,47.5z"/>
	<path class="st14" d="M17,54.9c-0.2-0.3-0.5-0.5-0.8-0.7c0,0.2,0.1,0.4,0.2,0.6c0.4,1.2,0.8,3,1.2,4.5c0-0.2,0.1-0.5,0.2-1
		c0-0.1,0-0.2,0-0.4C17.4,57.1,17.2,56,17,54.9z"/>
	<path class="st13" d="M16.2,55c-5.8-2.4-2.7-5.8-7.8-3.6C8,51.6,7.6,52,7.1,52.5c0.5,0.1,1,0.2,1.6,0.1c1.5-0.2,1,1-1.5,1.3
		C6.7,54,6.4,54.1,6,54.2c-1.2,2.3-1.7,5.3,0.8,6.3c0.5,0.2,1.1,0.3,1.8,0.4c0.8-0.6-0.2-4.2,1-3.7c1.2,0.5-0.4,3.1-0.2,3.7
		c1.1,0,2.4-0.2,3.6-0.5c0.5-0.3,0.8-0.6,1-1.1c0.4-1.6-2.1-2.6-2.2-3.9c-0.1-1.3,0.9,2.8,3.5,3.3C17.7,57.6,18.8,56.1,16.2,55z"/>
	<path class="st13" d="M20.3,50.7c-0.6-1.3,1-1.6,0.9-0.6c-0.1,0.9-0.1,3,0.8,3.6c1.5-0.2,3.6-0.8,5.2-1.7c0-0.1,0-0.3-0.1-0.4
		c-0.7-1.4-5.1-2.5-3.7-3c1.1-0.4,3,1.8,4.5,2.9c0.9-0.7,1.5-1.5,1.5-2.5c0-1.3-1.5-2.7-3.5-3.4c-0.9,0.1-1.7,0.6-3,1.3
		c-1.9,1.1-1.5-0.7,0.3-1.7c-1.6,0.1-3.1,0.7-4.3,2.3c0,0,0.1,0.7-0.6,1.7c-2,2.9,0.3,4.5,3,4.4C21.3,52.9,20.7,51.6,20.3,50.7z"/>
	<path class="st14" d="M12.7,52c-1.5,1.1-3.1,2.5-5.1,3.4c-2,0.9-1.6,3.9-1.6,3.9s-0.3-2.6,1.4-3.4C9,55,10.1,54,11.4,53.8
		c1.3-0.2,2-0.4,2-0.4s-0.4-0.8-0.2-1.1C13.5,51.9,12.7,52,12.7,52z"/>
	<path class="st14" d="M5.4,38.6c5.4,1.4,9.4,4.9,10.1,5.8c0.7,0.8,0.7,1.1,0.7,1.1l-0.6,1.1l-0.3-0.1c0,0,0.4-0.9-0.7-2.1
		c-2-2-4.4-3.6-6-4.3C7.1,39.2,5.4,38.6,5.4,38.6z"/>
	<path class="st12" d="M19.4,68.6L19.4,68.6c-2,0-3.7-1.7-3.7-3.7v-3.7h7.4v3.7C23.1,67,21.4,68.6,19.4,68.6z"/>
</g>
</svg>
