<?xml version="1.0" encoding="utf-8"?>
<!-- Generator: Adobe Illustrator 22.0.1, SVG Export Plug-In . SVG Version: 6.00 Build 0)  -->
<svg version="1.1" id="Layer_1" xmlns="http://www.w3.org/2000/svg" xmlns:xlink="http://www.w3.org/1999/xlink" x="0px" y="0px"
	 viewBox="0 0 100 80.7" style="enable-background:new 0 0 100 80.7;" xml:space="preserve">
<style type="text/css">
	.st0{fill:#E7F3FE;}
	.st1{fill:#A2DFF2;}
	.st2{fill:#96CFE0;}
	.st3{fill:#2E5B9A;}
	.st4{fill:#F09959;}
	.st5{fill:#E38540;}
	.st6{fill:#75A1DE;}
	.st7{fill:#A86B48;}
	.st8{fill:#3E6BAB;}
	.st9{fill:#F0CEB4;}
	.st10{fill:#A8CEFF;}
	.st11{fill:#F7A96F;}
	.st12{fill:#B7E1FF;}
	.st13{fill:#FFFFFF;}
	.st14{fill:#9EC8FF;}
	.st15{fill:#9CD499;}
</style>
<g>
	<path class="st0" d="M7.9,60.4c0,0-7.8-9.7-3.1-19C9.5,32.2,18.4,34.4,31,25c15.2-11.4,25.9-12.1,39.5-7.1
		c7.7,2.8,8.9,14.4,21.2,21.6c11,6.5,2,17.6-3.8,19.3c-5.8,1.7-9.7,1.7-9.7,1.7L7.9,60.4z"/>
	<path class="st1" d="M54.6,39.5c-2,4-4.4,14.8-5.1,15.4c-0.7,0.6-4.5,2.9-5.2,4c-0.7,1.1-0.4,0.7-0.1,0.8
		c0.3,0.1,17.1,0.1,17.1,0.1s-1.9-11.5-2.2-11.6C59,48.2,54.6,39.5,54.6,39.5z"/>
	<path class="st2" d="M51.8,59.9c3.1,0,6.3,0,8.1,0l-2.5-14.7c-1.3-2.5-2.9-5.7-2.9-5.7c-0.2,0.5-0.5,1.1-0.8,1.8
		c-0.3,11,1.3,14.1,0.1,16.1C53,58.9,52.2,59.6,51.8,59.9z"/>
	<path class="st3" d="M86.7,60.7H6c-0.3,0-0.6-0.3-0.6-0.6c0-0.3,0.3-0.6,0.6-0.6h80.7c0.3,0,0.6,0.3,0.6,0.6
		C87.3,60.4,87,60.7,86.7,60.7z"/>
	<path class="st1" d="M64.9,34.7c2.8,2.6,9,5,9,5s0.9,8.7,0.3,13.7c-0.6,4.9-0.3,5.9-0.3,5.9H61.1c0,0-1.7-2.4-4.9-9.8
		c-2-4.7-1.6-10-1.6-10l7.8-3.5L64.9,34.7z"/>
	<path class="st2" d="M61.1,59.3h12.8c0,0-0.4-1,0.3-5.9c0.5-4.1,0-10.7-0.2-12.9L72.8,40c-2.9,0.8-4.6,5.2-5.1,9.5
		c-0.3,2.9-5.1,5.7-8.1,7.2C60.6,58.6,61.1,59.3,61.1,59.3z"/>
	<path class="st3" d="M58,25.8c-1.5,3.4,0.3,6.6,0.3,6.5c-0.1-0.1,2.3-5.8,2.3-5.8L58,25.8z"/>
	<path class="st4" d="M63.8,28.3l2,7.2c0.1,0.2,0,0.4-0.1,0.6c-0.5,0.6-1.1,1.7-2.4,2.1c-0.3,0.1-0.6,0.1-0.8,0.1
		c-0.3,0-0.5-0.2-0.6-0.5L60.5,31L63.8,28.3z"/>
	<path class="st5" d="M63.4,28.9l-0.7,0.3L60.5,31l1.2,6C63.7,35.8,64,34.9,63.4,28.9z"/>
	<path class="st4" d="M63.7,31.5c-0.4,2.4-2.2,3.9-3.9,3.6c-1.7-0.4-2.6-1.9-2.4-5c0.2-2.4,1.3-5,3.1-4.6
		C62.3,25.8,64.2,29.1,63.7,31.5z"/>
	<path class="st1" d="M73.9,39.7c2.6,0.6,3.1,5.9,3.9,11.4c0.1,0.6,0.6,6,0.6,6s0,1-0.9,1.5c-0.8,0.4-1.2,0.7-6.1,0.8
		c-4.7,0-10.8-0.1-10.8-0.1s-0.1-1.8,0.4-2.6c0.7-1.3,8.2-3.1,8.9-3.2c0.1-1.4-0.7-6.4,0.4-9.8c0.7-2.3,1.5-3.6,2.5-3.9
		C73.2,39.7,73.5,39.7,73.9,39.7z"/>
	<path class="st2" d="M63.2,59.4c2.3,0,5.5,0.1,8.1,0c4.9,0,5.3-0.4,6.1-0.8c1-0.5,1-1.3,1-1.3s-0.5-5.8-0.6-6.4
		c-0.5-3.7-1.1-8-2.5-10c1.3,3.8,1.5,7,1.5,8.3c0,0.7-0.1,1.6-0.3,2.3c-0.2,0.7-0.8,1.2-1.7,0.9C73.2,52,71,53,71,53s1.7-0.6,3.3,0
		c1.6,0.5,4.9,4.2,1.3,5.5C74.4,58.9,67.9,59.2,63.2,59.4z"/>
	<path class="st2" d="M61.4,56.9c0,0,0.7-1.1,2-1.1c1.4,0,1.3,2.2,1.1,2.9c-0.2,0.7-1,0.8-1,0.8l-2.9-0.1L61.4,56.9z"/>
	<path class="st6" d="M58.4,60H40.2c-0.3,0-0.6-0.3-0.6-0.6l0,0c0-0.3,0.3-0.6,0.6-0.6h18.2c0.3,0,0.6,0.3,0.6,0.6v0
		C59,59.7,58.7,60,58.4,60z"/>
	<path class="st4" d="M61,57c-2.8-1-3.6-0.6-4.2-0.8c-1.6-0.5-2-0.1-3,2.7c-0.2,0.6,0.4,0.6,1,0.6c0.6,0,1.3-1.2,1.6-1.3
		c0.2-0.1,0.9-0.2,0.9-0.2s-0.2,0-0.5,0.6c-0.3,0.6-0.7,0.8-0.2,0.8s0.5-0.8,1.4-0.6c0.9,0.2,0.5,0.6,2.7,0.6c2.1,0,3.8,0,3.7-1.3
		c0-1.2,0.1-1.8-1.1-2C62.4,55.9,61,57,61,57z"/>
	<path class="st7" d="M61.1,57c1.9-0.2,1.3,2.2,1.1,2.4s1.1,0.1,1.1,0.1s0.6-0.9,0.1-2s-1.5-1.1-1.5-1.1L61,56.7L61.1,57z"/>
	<path class="st3" d="M63.1,56.8c0,0.3-0.5,0.5-1.1,0.4c-0.6,0-1-0.3-1-0.6c0-0.3,0.5-0.5,1.1-0.4C62.6,56.2,63.1,56.5,63.1,56.8z"
		/>
	<path class="st8" d="M62.9,56.7c0,0.3-0.5,0.4-1,0.4c-0.5,0-0.9-0.3-0.9-0.6c0-0.3,0.5-0.4,1-0.4C62.5,56.1,62.9,56.4,62.9,56.7z"
		/>
	<path class="st9" d="M62.6,56.5c0,0.2-0.3,0.3-0.7,0.3c-0.4,0-0.7-0.2-0.7-0.4c0-0.2,0.3-0.3,0.7-0.3
		C62.3,56.2,62.6,56.3,62.6,56.5z"/>
	<g>
		<path class="st6" d="M39.5,56.3H21c-1,0-1.8-0.7-2-1.7l-2.4-13.3c-0.2-1.3,0.7-2.4,2-2.4H37c1,0,1.8,0.7,2,1.7l2.4,13.3
			C41.7,55.2,40.7,56.3,39.5,56.3z"/>
		<path class="st10" d="M40.3,54l-2.5-13c-0.2-0.9-1-1.6-2-1.6H17.1c-0.4,0.5-0.6,1.1-0.5,1.7l2.5,13.6c0.2,1,1,1.7,2,1.7h17.2
			C39.6,56.3,40.5,55.2,40.3,54z"/>
		<path class="st6" d="M35.9,58.1h-3.5c-0.6,0-1.1-0.6-1.1-1.2v-6.4c0-1.1-0.8-2-1.8-2h-1.8c-1,0-1.8,0.9-1.8,2v7.2
			c0,1.2,0.9,2.2,2,2.2l9.6-0.1C37.4,58.9,36.7,58.1,35.9,58.1z"/>
		<path class="st10" d="M25.9,50.6v7.1c0,1.2,0.9,2.1,2,2.2l9.3-0.1c0-0.2-0.7-0.4-1.6-0.4h-3.8c-0.7,0-1.2-0.5-1.2-1.2v-7.5
			c0-1.1-0.9-1.9-1.9-1.9h-0.8C26.8,48.6,25.9,49.5,25.9,50.6z"/>
	</g>
	<path class="st4" d="M45.5,57.3c1.4-0.8,3.1-0.5,3.8,0.3c0.6,0.8,0.7,1.3-0.7,1.3c-1.4,0-4.2,0.1-4.7,0.1
		C43.4,58.9,45.5,57.3,45.5,57.3z"/>
	<path class="st4" d="M47.6,56.8c1.5-0.4,2.6,0.5,3.8,1.4c1.1,0.7,1.3,1.4,0.1,0.8c-1.8-0.9-2.8-1-2.8-1L47.6,56.8z"/>
	<path class="st4" d="M46.2,57.3c-0.8,0-1.4-0.2-2-0.2c-0.5,0-2.3,1.8-2,1.9c0,0,0,0,0.1,0c0.4,0.1,0.9,0,1.1-0.4
		c0.2-0.4,0.6-0.8,1.1-0.7c0.8,0.3,1.6,0.2,1.6,0.2L46.2,57.3z"/>
	<path class="st11" d="M45.7,59.2c-0.8-0.3,0.5-2.9,0.9-2.9c0.4,0,2,1.3,2,1.3s-0.4,0.2-1.6-0.2c-0.3-0.1-0.6,1.7-0.9,1.9
		C45.7,59.4,45.7,59.2,45.7,59.2z"/>
	<path class="st3" d="M57.4,31.4c-0.1,2.9,0.9,3.4,1.6,3.8c0.7,0.4,3.6-0.3,4.1-1c1.1-1.8,0.2-3.5,0.4-3.5c0.2,0,0.5,0.7,1.1,1.7
		c0.1,0.1,0.5,0.7,0.5,0.5c0.3-2.6,1.6-3.4,1.3-6C66.2,25,65,25.1,65,25.1s-0.8-1.6-3.2-1.4c-1.6,0.1-3.1,0.8-4.8,1.2
		c-1.7,0.4,2,4.3,4.2,2.9c2.2-1.4,1.1,1.7,1.5,1.9c0.3,0.2,0.2,0,0.3,1.6c0.2,1.6-1.8,2.6-2.4,2.7c-1.8,0.4-2.1,0.1-2.5-0.6
		C57.7,32.9,57.4,31.4,57.4,31.4z"/>
	<path class="st4" d="M65,30.5c-0.2,0.7-0.7,1.2-1.2,1c-0.4-0.1-0.4-0.7-0.4-1.6c0-0.8,0.7-1.2,1.2-1C65.1,29.1,65.3,29.8,65,30.5z"
		/>
	<g>
		<g>
			<path class="st12" d="M21.5,28.6h-8.9c-2,0-3.7-1.6-3.7-3.7v0c0-2,1.6-3.7,3.7-3.7h8.9c2,0,3.7,1.6,3.7,3.7v0
				C25.2,27,23.5,28.6,21.5,28.6z"/>
			<path class="st13" d="M22.2,28.3H11.9c-1.4,0-2.5-1.1-2.5-2.5v0c0-1.4,1.1-2.5,2.5-2.5h10.3c1.4,0,2.5,1.1,2.5,2.5v0
				C24.8,27.1,23.6,28.3,22.2,28.3z"/>
			<g>
				<path class="st13" d="M9.9,22.3L9.9,22.3c-0.2,0-0.4-0.1-0.4-0.3v0c0-0.2,0.1-0.3,0.3-0.3h0.1c0.2,0,0.3,0.1,0.3,0.3v0
					C10.2,22.2,10.1,22.3,9.9,22.3z"/>
				<path class="st13" d="M11.1,22.3L11.1,22.3c-0.2,0-0.4-0.1-0.4-0.3v0c0-0.2,0.1-0.3,0.3-0.3h0.1c0.2,0,0.3,0.1,0.3,0.3l0,0
					C11.4,22.2,11.2,22.3,11.1,22.3z"/>
				<path class="st13" d="M12.2,22.3L12.2,22.3c-0.2,0-0.4-0.1-0.4-0.3v0c0-0.2,0.1-0.3,0.3-0.3h0.1c0.2,0,0.3,0.1,0.3,0.3v0
					C12.5,22.2,12.4,22.3,12.2,22.3z"/>
			</g>
			<path class="st12" d="M24.1,24.3H16c-0.1,0-0.2-0.1-0.2-0.2c0-0.1,0.1-0.2,0.2-0.2h8.2c0.1,0,0.2,0.1,0.2,0.2
				C24.4,24.2,24.3,24.3,24.1,24.3z"/>
			<path class="st12" d="M18,28H9.8c-0.1,0-0.2-0.1-0.2-0.2c0-0.1,0.1-0.2,0.2-0.2H18c0.1,0,0.2,0.1,0.2,0.2
				C18.2,27.9,18.1,28,18,28z"/>
			<path class="st12" d="M19.3,28h-0.5c-0.1,0-0.2-0.1-0.2-0.2v0c0-0.1,0.1-0.2,0.2-0.2h0.5c0.1,0,0.2,0.1,0.2,0.2v0
				C19.6,27.9,19.5,28,19.3,28z"/>
			<path class="st12" d="M20.6,28h-0.5c-0.1,0-0.2-0.1-0.2-0.2v0c0-0.1,0.1-0.2,0.2-0.2h0.5c0.1,0,0.2,0.1,0.2,0.2v0
				C20.8,27.9,20.7,28,20.6,28z"/>
			<path class="st12" d="M24.2,25.3H10.7c-0.1,0-0.2-0.1-0.2-0.2c0-0.1,0.1-0.2,0.2-0.2h13.5c0.1,0,0.2,0.1,0.2,0.2
				C24.4,25.3,24.3,25.3,24.2,25.3z"/>
			<path class="st12" d="M24.2,26.1H10.7c-0.1,0-0.2-0.1-0.2-0.2s0.1-0.2,0.2-0.2h13.5c0.1,0,0.2,0.1,0.2,0.2S24.3,26.1,24.2,26.1z"
				/>
		</g>
		<g>
			<path class="st14" d="M25.2,33.8h-8.9c-2,0-3.7-1.6-3.7-3.7v0c0-2,1.6-3.7,3.7-3.7h8.9c2,0,3.7,1.6,3.7,3.7v0
				C28.9,32.1,27.2,33.8,25.2,33.8z"/>
			<path class="st13" d="M25.9,33.4H15.6c-1.4,0-2.5-1.1-2.5-2.5v0c0-1.4,1.1-2.5,2.5-2.5h10.3c1.4,0,2.5,1.1,2.5,2.5v0
				C28.4,32.3,27.3,33.4,25.9,33.4z"/>
			<g>
				<path class="st13" d="M13.6,27.5L13.6,27.5c-0.2,0-0.4-0.1-0.4-0.3v0c0-0.2,0.1-0.3,0.3-0.3h0.1c0.2,0,0.3,0.1,0.3,0.3v0
					C13.9,27.4,13.8,27.5,13.6,27.5z"/>
				<path class="st13" d="M14.8,27.5L14.8,27.5c-0.2,0-0.4-0.1-0.4-0.3v0c0-0.2,0.1-0.3,0.3-0.3h0.1c0.2,0,0.3,0.1,0.3,0.3v0
					C15,27.4,14.9,27.5,14.8,27.5z"/>
				<path class="st13" d="M15.9,27.5L15.9,27.5c-0.2,0-0.4-0.1-0.4-0.3l0,0c0-0.2,0.1-0.3,0.3-0.3h0.1c0.2,0,0.3,0.1,0.3,0.3l0,0
					C16.2,27.4,16.1,27.5,15.9,27.5z"/>
			</g>
			<path class="st14" d="M27.8,29.5h-8.2c-0.1,0-0.2-0.1-0.2-0.2c0-0.1,0.1-0.2,0.2-0.2h8.2c0.1,0,0.2,0.1,0.2,0.2
				C28.1,29.3,27.9,29.5,27.8,29.5z"/>
			<path class="st14" d="M21.7,33.2h-8.2c-0.1,0-0.2-0.1-0.2-0.2c0-0.1,0.1-0.2,0.2-0.2h8.2c0.1,0,0.2,0.1,0.2,0.2
				C21.9,33.1,21.8,33.2,21.7,33.2z"/>
			<path class="st14" d="M23,33.2h-0.5c-0.1,0-0.2-0.1-0.2-0.2l0,0c0-0.1,0.1-0.2,0.2-0.2H23c0.1,0,0.2,0.1,0.2,0.2l0,0
				C23.3,33.1,23.2,33.2,23,33.2z"/>
			<path class="st14" d="M24.3,33.2h-0.5c-0.1,0-0.2-0.1-0.2-0.2l0,0c0-0.1,0.1-0.2,0.2-0.2h0.5c0.1,0,0.2,0.1,0.2,0.2l0,0
				C24.5,33.1,24.4,33.2,24.3,33.2z"/>
			<path class="st14" d="M27.9,30.5H14.4c-0.1,0-0.2-0.1-0.2-0.2c0-0.1,0.1-0.2,0.2-0.2h13.5c0.1,0,0.2,0.1,0.2,0.2
				C28.1,30.4,28,30.5,27.9,30.5z"/>
			<path class="st14" d="M27.9,31.2H14.4c-0.1,0-0.2-0.1-0.2-0.2c0-0.1,0.1-0.2,0.2-0.2h13.5c0.1,0,0.2,0.1,0.2,0.2
				C28.1,31.2,28,31.2,27.9,31.2z"/>
		</g>
	</g>
	<g>
		<path class="st15" d="M34.7,32c0,1.2-0.9,2.1-2.1,2.1c-1.2,0-2.1-0.9-2.1-2.1c0-1.2,0.9-2.1,2.1-2.1C33.7,29.9,34.7,30.8,34.7,32z
			"/>
		<g>
			<path class="st13" d="M32.4,32.8C32.4,32.8,32.4,32.8,32.4,32.8c-0.1,0-0.1,0-0.1-0.1L31.7,32c-0.1-0.1-0.1-0.2,0-0.2
				c0.1-0.1,0.2-0.1,0.2,0l0.5,0.5l1.1-1.1c0.1-0.1,0.2-0.1,0.2,0c0.1,0.1,0.1,0.2,0,0.2l-1.2,1.2C32.4,32.7,32.4,32.8,32.4,32.8z"
				/>
		</g>
	</g>
	<g>
		<path class="st14" d="M45.8,22.1h-8.7c-1.7,0-3-1.4-3-3v0c0-1.7,1.4-3,3-3h8.7c1.7,0,3,1.4,3,3v0C48.9,20.8,47.5,22.1,45.8,22.1z"
			/>
		<path class="st14" d="M35.9,21.2v3.3l3.9-3.9C39.8,20.7,36,21.2,35.9,21.2z"/>
		<path class="st13" d="M45.7,21.5h-8.3c-1.3,0-2.4-1.1-2.4-2.4v0c0-1.3,1.1-2.4,2.4-2.4h8.3c1.3,0,2.4,1.1,2.4,2.4v0
			C48.1,20.4,47,21.5,45.7,21.5z"/>
		<path class="st14" d="M42.1,17.9h-6c-0.1,0-0.3-0.1-0.3-0.3c0-0.1,0.1-0.3,0.3-0.3h6c0.1,0,0.3,0.1,0.3,0.3
			C42.4,17.8,42.2,17.9,42.1,17.9z"/>
		<path class="st14" d="M47.1,18.9H36c-0.1,0-0.1-0.1-0.1-0.1l0,0c0-0.1,0.1-0.1,0.1-0.1h11c0.1,0,0.1,0.1,0.1,0.1l0,0
			C47.2,18.8,47.2,18.9,47.1,18.9z"/>
		<path class="st14" d="M47.1,19.4H36c-0.1,0-0.1-0.1-0.1-0.1l0,0c0-0.1,0.1-0.1,0.1-0.1h11c0.1,0,0.1,0.1,0.1,0.1l0,0
			C47.2,19.4,47.2,19.4,47.1,19.4z"/>
		<g>
			<path class="st14" d="M44.6,21.3L44.6,21.3c-0.2,0-0.4-0.1-0.4-0.3v0c0-0.2,0.1-0.3,0.3-0.3h0.1c0.2,0,0.3,0.1,0.3,0.3l0,0
				C44.9,21.2,44.8,21.3,44.6,21.3z"/>
			<path class="st14" d="M45.8,21.3L45.8,21.3c-0.2,0-0.4-0.1-0.4-0.3v0c0-0.2,0.1-0.3,0.3-0.3h0.1c0.2,0,0.3,0.1,0.3,0.3v0
				C46.1,21.2,46,21.3,45.8,21.3z"/>
			<path class="st14" d="M47,21.3L47,21.3c-0.2,0-0.4-0.1-0.4-0.3v0c0-0.2,0.1-0.3,0.3-0.3H47c0.2,0,0.3,0.1,0.3,0.3l0,0
				C47.3,21.2,47.1,21.3,47,21.3z"/>
		</g>
	</g>
</g>
</svg>
