<?xml version="1.0" encoding="utf-8"?>
<!-- Generator: Adobe Illustrator 22.0.1, SVG Export Plug-In . SVG Version: 6.00 Build 0)  -->
<svg version="1.1" id="Layer_1" xmlns="http://www.w3.org/2000/svg" xmlns:xlink="http://www.w3.org/1999/xlink" x="0px" y="0px"
	 viewBox="0 0 100 80.7" style="enable-background:new 0 0 100 80.7;" xml:space="preserve">
<style type="text/css">
	.st0{fill:#E7F3FE;}
	.st1{fill:#303C60;}
	.st2{fill:#F09959;}
	.st3{fill:#6791C9;}
	.st4{fill:#75A1DE;}
	.st5{opacity:0.5;fill:#6791C9;enable-background:new    ;}
	.st6{fill:#E38540;}
	.st7{fill:#F5CE5C;}
	.st8{fill:#4381DB;}
	.st9{fill:#2E5B9A;}
	.st10{fill:#9CBEED;}
	.st11{fill:#FFFFFF;}
	.st12{fill:#003366;}
	.st13{fill:#F37168;}
	.st14{fill:#F2E5DE;}
	.st15{fill:#7BCEE8;}
	.st16{fill:#9EC8FF;}
	.st17{fill:#9CD499;}
	.st18{fill:#74B570;}
	.st19{fill:#A2DFF2;}
</style>
<path class="st0" d="M17.1,62.1c0,0-20.9-13.1-6.6-27.2S43.9,6.4,56.7,12s11.7,12.5,25.7,22.7C96.5,44.9,93.2,53,90.7,57.1
	s-2.9,5.2-2.9,5.2L17.1,62.1z"/>
<path class="st1" d="M33,24.8c3.1-2.8,5.4-1.1,7.1,0.7c1.4,1.5,1.5,1.8,2.7,3.3c0.2,0.2,0.3,0.5,0.3,0.8c0,1.7,0.9,8.8-0.1,11.2
	C41.9,43.7,28.2,45,28.2,45L33,24.8z"/>
<g>
	<path class="st1" d="M41.8,42.4C41.7,42.4,41.7,42.3,41.8,42.4c-0.1-0.2,0-0.2,0-0.2c0.4,0,0.7-0.2,1-0.6c1.5-2,0.7-8.7-0.1-12.3
		c0-0.1,0-0.2,0.1-0.2s0.2,0,0.2,0.1c0.2,0.8,0.7,3.6,0.9,6.5c0.2,3-0.1,5-0.9,6C42.7,42.2,42.3,42.4,41.8,42.4L41.8,42.4z"/>
</g>
<path class="st1" d="M34.2,23.9c-6,3.3-2.3,14.4-9.9,18.4c-2.1,1.1-8.5,6.7-4.3,14c2.8,4.8,11,3.8,13.7-0.5
	C36.4,51.6,34.2,23.9,34.2,23.9z"/>
<g>
	<path class="st1" d="M18.4,49.3C18.3,49.3,18.3,49.3,18.4,49.3c-0.1,0-0.2-0.1-0.1-0.2c0,0,0.1-1,0.7-2.2c0.5-1.1,1.6-2.8,3.6-4
		c3.5-2.2,5.8-4.3,8.6-14.6c0-0.1,0.1-0.1,0.2-0.1s0.1,0.1,0.1,0.2c-1.3,5-2.6,8.4-4.1,10.6c-1.4,2.1-2.8,3.1-4.5,4.2
		c-3.6,2.3-4.2,6-4.2,6C18.5,49.2,18.4,49.3,18.4,49.3z"/>
</g>
<g>
	<path class="st1" d="M18.5,46.4C18.5,46.4,18.4,46.4,18.5,46.4c-0.1-0.1-0.2-0.2-0.1-0.2c0.9-1.4,2-2.5,3.3-3.3
		c4.9-3.2,5.7-5,9.8-15.4c0-0.1,0.1-0.1,0.2-0.1s0.1,0.1,0.1,0.2c-2,5.2-3.2,8.3-4.6,10.5c-1.4,2.3-3,3.6-5.3,5.1
		c-1.3,0.8-2.3,1.9-3.2,3.2C18.6,46.3,18.5,46.4,18.5,46.4z"/>
</g>
<path class="st2" d="M34,30.9c-2,4.3-1.7,8.1-1.7,8.1s0.2,1.5,1.2,1.8c0.9,0.3,2.3-0.6,2.2-1.9c-0.1-1.3,0.3-4.3,0.8-5.4
	C36.9,32.4,34,30.9,34,30.9z"/>
<path class="st3" d="M23.2,60.5c0.1,1.2-0.2,1.1,0.9,1.3c1,0.2,2.9-0.5,2.9-0.5l-2.1-3.8L23.2,60.5z"/>
<path class="st2" d="M32.5,36.7c-0.6,1.9-4.9,0.4-6.5,0.9c-1.5,0.4-2.8,6.8-3,12.6c-0.2,5.7,0.1,10.3,0.7,11s10.2,1,11,0.7
	c0.9-0.3-7.3-3.9-7.3-3.9s-0.5-6.7,0.1-10.1C28.2,44.5,34,40,34,40L32.5,36.7z"/>
<path class="st2" d="M34.5,37.3c1.5,2.3,5.5,2,6.9,3.9s4.3,12.3,4.3,12.3l3-10.5c0,0,2.5-0.4,1.7,1.3c-1.4,3.1-2,12.9-3.5,14.3
	c-1.7,1.6-3.4,0.3-4.4-2.4c-0.9-2.6-3.3-8.3-4.9-10.5c-1.7-2.2-3.5-5.7-3.5-5.7L34.5,37.3z"/>
<path class="st4" d="M27.9,37.6c3,3.6,9,3.4,10.3,3s1.3-0.4,1.3-0.4s1-0.4,1.9,0.7c0.9,1,3,7.4,3.3,8.9c0.4,1.5,0.9,3.8,0.9,3.8
	S44,55.5,44,57.4c0,1.9,0.7,1.9,0.7,1.9s-1.9-0.4-2.4-1.6C41.9,56.5,37.9,46,37.9,46l-10.8,0.2l0.1,11.9c0,0-0.9-0.9-2.3,0
	c-1.3,0.9-1.7,2.9-1.5,3.2c0.2,0.3-0.4,0.3-0.4,0.1c0-0.2-1.2-5.5-0.4-14.2c0.9-8.7,2.5-9.7,3.5-9.7C27.3,37.2,27.9,37.6,27.9,37.6z
	"/>
<g>
	<path class="st3" d="M44.4,59L44.4,59L44.4,59z"/>
	<path class="st3" d="M44.8,53.8c-0.6,0.2-1.7,2.4-1.7,2.4s-2.4-5.3-3.1-12.6l-0.9,5c1.2,3.2,3.1,8.2,3.4,9c0.4,1.1,2,1.5,2.2,1.6
		c-0.1,0-0.2-0.1-0.3-0.4c-0.1-0.1-0.4-0.2-0.5-0.3c-0.6-0.5-0.3-1.8,0-3.2C44.3,53.8,45.4,53.6,44.8,53.8z"/>
</g>
<path class="st3" d="M27.8,46.1l-1.2-5.5c-1.3,1.8-1.5,8.1-0.9,12.4c0.4,3.5,1.1,4.4,1.5,4.8c0.1,0.1,0.2,0.1,0.2,0.1L27.3,46
	L27.8,46.1z"/>
<path class="st4" d="M24.3,40.5c2.2,6,1.1,7.2,4,14.3c1.7,3.9,4.9,6.9,4.9,6.9s2.5,0.7,5.7,0.4c3.2-0.2,5.5-0.4,5.5-0.4
	s-3.4-2-3.5-3.4s-0.8-6.8,0-10.7c0.6-3-2-6-2-6l-4.4-0.2L24.3,40.5z"/>
<path class="st5" d="M28.2,49.7c-0.4-1.4,1.6,0.4,5,0.8c3.3,0.3,7.1-0.2,5.2,0.4c-1.8,0.6-6.9-0.3-6,1.5c1.1,2.2,2.4,4.3,4.2,5.5
	c1.2,0.8,4.1,1.6,1.3,1.2s-5.8-3.7-7.1-5.9C29.6,51.1,28.3,50.1,28.2,49.7z"/>
<path class="st6" d="M35.6,38.4c0-1.4,0.4-3.9,0.8-4.9c0.3-0.8-1.1-1.8-1.9-2.3h-0.7c-0.1,0.2-0.2,0.5-0.3,0.7
	c-0.7,4.8,1.5,6.8,2.6,7.2c0.5,0.2,1,0.2,1.4,0.2C36.8,39,36.2,38.7,35.6,38.4z"/>
<g>
	<path class="st7" d="M34.3,40.5c-0.3,0-0.5,0-0.8-0.1c-0.6-0.1-2.1-0.7-2.4-2.7c0,0,0-0.1,0.1-0.1c0,0,0.1,0,0.1,0.1
		c0.3,1.9,1.7,2.5,2.3,2.6c0.9,0.2,1.8,0,2.2-0.5c0.3-0.4,0.1-1.2,0.1-1.2s0-0.1,0.1-0.1c0,0,0.1,0,0.1,0.1c0,0,0.2,0.9-0.1,1.4
		C35.6,40.3,35,40.5,34.3,40.5z"/>
</g>
<path class="st2" d="M41.1,32.8c-0.5,2.6-1.6,4.7-3.6,4.3c-1.9-0.4-3.9-3.1-3.4-5.7c0.5-2.6,2.5-4.4,4.4-4
	C40.5,27.8,41.8,29.3,41.1,32.8z"/>
<path class="st2" d="M48,45.6c0,0-3.6,9.6-3.7,10.6c-0.2,1,0.2,1.6,0.3,1.6s3.1-5.2,3.1-5.2L48,45.6z"/>
<path class="st2" d="M48.1,45.2c0.3-1-0.2-2.2-0.2-2.2l1.3,0.2L48.1,45.2z"/>
<g>
	<path class="st8" d="M49.6,43.6H46c-0.2,0-0.4-0.2-0.3-0.4l2.3-7.6c0-0.1,0.2-0.2,0.3-0.2h3.6c0.2,0,0.4,0.2,0.3,0.4l-2.3,7.6
		C49.8,43.5,49.7,43.6,49.6,43.6z"/>
	<path class="st9" d="M50,43.6h-3.6c-0.2,0-0.4-0.2-0.3-0.4l2.3-7.6c0-0.1,0.2-0.2,0.3-0.2h3.6c0.2,0,0.4,0.2,0.3,0.4l-2.3,7.6
		C50.3,43.5,50.1,43.6,50,43.6z"/>
	<path class="st10" d="M47.4,38c-0.4,1.4-0.6,2.5-0.6,2.5c0.1,0,0.4-1.1,0.8-2.5c0.4-1.4,0.6-2.5,0.6-2.5
		C48.1,35.5,47.8,36.7,47.4,38z"/>
</g>
<path class="st2" d="M49.8,45.8c0.1-1.3,1.2-2.4,1.6-2.8c0.1-0.1,0.2-0.3,0.2-0.4c0-0.6,0-2.1-0.2-2.3s-0.6-3.1-0.8-2.9
	c-0.2,0.1,0.1,2.6,0.1,2.6s-0.5-0.2-0.7-0.3s-1.3,1-1.3,1s-0.5,1.2,0.8,0.7c1.5-0.6,0.4,1.1-0.6,2.2c-0.9,0.9-0.1,1.1-0.1,1.1h0.7
	L49.8,45.8z"/>
<g>
	<path class="st7" d="M49.5,46.8c-0.1,0-0.2,0-0.4-0.1c-0.3-0.1-0.9-0.4-1.1-1.5c0,0,0-0.1,0.1-0.1c0,0,0.1,0,0.1,0.1
		c0.1,0.9,0.6,1.3,0.9,1.4c0.3,0.1,0.5,0.1,0.6,0v-0.1h0.1v0.1C49.8,46.8,49.6,46.8,49.5,46.8z"/>
</g>
<g>
	<path class="st7" d="M49.3,46.5c-0.1,0-0.2,0-0.3,0c-0.6-0.1-1-0.4-1.1-0.9c0,0,0-0.1,0.1-0.1c0,0,0.1,0,0.1,0.1
		c0.1,0.4,0.5,0.6,0.8,0.7c0.4,0.1,0.9,0,0.9,0s0.1-0.1,0.1,0c0,0,0.1,0.1,0,0.1C49.8,46.5,49.6,46.5,49.3,46.5z"/>
</g>
<g>
	<path class="st11" d="M38.9,34.1L38.9,34.1c-0.7-0.1-1.1-0.9-0.9-1.8c0.1-0.4,0.2-0.8,0.5-1.1s0.6-0.4,0.9-0.4
		c0.6,0.1,1,0.9,0.8,1.8C40,33.5,39.5,34.1,38.9,34.1z M39.2,31.2c-0.2,0-0.4,0.1-0.5,0.3c-0.2,0.2-0.3,0.6-0.4,0.9
		c-0.1,0.7,0.2,1.4,0.6,1.5c0.4,0.1,0.9-0.5,1-1.2C40,31.9,39.7,31.2,39.2,31.2L39.2,31.2z"/>
</g>
<g>
	<path class="st11" d="M40.9,34.1L40.9,34.1c-0.5-0.1-0.7-0.7-0.6-1.5c0.1-0.8,0.5-1.4,0.9-1.3c0.2,0,0.4,0.2,0.5,0.5
		c0.1,0.3,0.1,0.6,0,1C41.7,33.6,41.3,34.1,40.9,34.1z M41.3,31.5c-0.2,0-0.6,0.5-0.7,1.1c-0.1,0.7,0.1,1.3,0.3,1.3s0.6-0.4,0.7-1.1
		c0.1-0.3,0-0.7,0-0.9C41.5,31.6,41.4,31.5,41.3,31.5L41.3,31.5z"/>
</g>
<g>
	<path class="st11" d="M38.3,31.7C38.2,31.7,38.2,31.7,38.3,31.7l-4.8-1.4c-0.1,0-0.1-0.1-0.1-0.2c0-0.1,0.1-0.1,0.2-0.1l4.7,1.4
		c0.1,0,0.1,0.1,0.1,0.2C38.4,31.7,38.3,31.7,38.3,31.7z"/>
</g>
<path class="st1" d="M41.6,28.8c-7.3,4.3-7.7,1.4-7.7,1.4l0.4-4.1l4.4,0.2L41.6,28.8z"/>
<path class="st2" d="M34.5,31.2c0.2,0.7-0.1,1.4-0.5,1.5c-0.5,0.1-1-0.4-1.1-1.1c-0.2-0.7,0.1-1.4,0.5-1.5
	C33.8,29.9,34.3,30.4,34.5,31.2z"/>
<path class="st7" d="M34,32.1c0,0.2-0.1,0.3-0.3,0.3s-0.3-0.1-0.3-0.3c0-0.2,0.1-0.3,0.3-0.3C33.8,31.8,34,32,34,32.1z"/>
<path class="st12" d="M97.3,63.1H10.5c-0.5,0-0.8-0.4-0.8-0.8c0-0.5,0.4-0.8,0.8-0.8h86.9c0.5,0,0.8,0.4,0.8,0.8
	C98.2,62.7,97.8,63.1,97.3,63.1z"/>
<path class="st12" d="M34.6,61.5c0,0-2.8,0-2.8,0.3c0,0.2,0.1,0.4,1.1,0.5c1,0.2,12,0.2,12.1,0.2c0.1-0.1,3.3-0.8,3.3-0.8l-7.7-0.1
	L34.6,61.5L34.6,61.5z"/>
<path class="st2" d="M36.1,59.7c0,0,2-0.9,2.6-0.5s2.3,2.2,2.3,2.2L36.1,59.7z"/>
<path class="st9" d="M40.8,61.5C40.8,61.5,40.7,61.6,40.8,61.5l-4.2-3c-0.2-0.2-0.3-0.4-0.2-0.5s0.4-0.1,0.6,0.1l3.9,3.3
	C40.8,61.4,40.8,61.5,40.8,61.5z"/>
<path class="st2" d="M30.1,59.3c0,0,3.3,1.3,3.7,1.3c0.4,0,2.5-1.5,3.3-1.3c0.7,0.2,4.3,2,4.2,2.1s-1.1,0.5-4.1,0.4
	s-7.9-0.5-7.9-0.5L30.1,59.3z"/>
<path class="st13" d="M70.7,61.7H58.1c-0.3,0-0.6-0.3-0.6-0.6v-1.7c0-0.3,0.3-0.6,0.6-0.6h12.7c0.8,0,1.4,0.6,1.4,1.4l0,0
	C72.2,61.1,71.5,61.7,70.7,61.7z"/>
<path class="st14" d="M70.2,59.4H57.5c-0.1,0.1-0.1,0.3-0.1,0.5v0.8c0,0.2,0.1,0.4,0.1,0.5h12.7c0.5,0,0.8-0.4,0.8-0.8v-0.2
	C71,59.7,70.7,59.4,70.2,59.4z"/>
<path class="st15" d="M70.6,58.9h-9.9c-0.2,0-0.3-0.2-0.3-0.3v-1c0-0.2,0.2-0.3,0.3-0.3h9.9c0.5,0,0.9,0.4,0.9,0.9l0,0
	C71.4,58.5,71,58.9,70.6,58.9z"/>
<path class="st14" d="M70,57.5h-9.6c-0.1,0.1-0.1,0.2-0.1,0.3v0.5c0,0.1,0,0.2,0.1,0.3H70c0.3,0,0.6-0.2,0.6-0.5V58
	C70.6,57.7,70.3,57.5,70,57.5z"/>
<g>
	<path class="st16" d="M72.6,22.5H61.7c-0.3,0-0.5-0.3-0.4-0.6l1.6-4.5c0.1-0.3,0.5-0.6,0.9-0.6h10.9c0.3,0,0.5,0.3,0.4,0.6
		l-1.6,4.5C73.3,22.2,72.9,22.5,72.6,22.5z"/>
	<path class="st11" d="M72.2,22h-9.8c-0.3,0-0.5-0.2-0.3-0.5l1.4-3.7c0.1-0.3,0.4-0.5,0.7-0.5H74c0.3,0,0.5,0.2,0.3,0.5l-1.4,3.7
		C72.8,21.7,72.5,22,72.2,22z"/>
	<path class="st16" d="M66,22.2c-0.9,2.4-2.3,3.1-2.3,3.1s1-1.4,0.8-2c-0.1-0.7-0.7-0.9-0.7-0.9L66,22.2z"/>
	<path class="st16" d="M73,18.5h-6.3c-0.1,0-0.2-0.1-0.1-0.2l0,0c0-0.1,0.2-0.2,0.3-0.2h6.3c0.1,0,0.2,0.1,0.1,0.2l0,0
		C73.2,18.4,73.1,18.5,73,18.5z"/>
	<path class="st16" d="M72.7,19.3h-6.3c-0.1,0-0.2-0.1-0.1-0.2l0,0c0-0.1,0.2-0.2,0.3-0.2h6.3c0.1,0,0.2,0.1,0.1,0.2l0,0
		C72.9,19.2,72.8,19.3,72.7,19.3z"/>
	<path class="st16" d="M72.4,20.2H66c-0.1,0-0.2-0.1-0.1-0.2l0,0c0-0.1,0.2-0.2,0.3-0.2h6.3c0.1,0,0.2,0.1,0.1,0.2l0,0
		C72.6,20.1,72.5,20.2,72.4,20.2z"/>
	<path class="st16" d="M65.7,19.1c-0.2,0.7-0.9,1.2-1.5,1.2s-0.8-0.6-0.6-1.2c0.3-0.7,0.9-1.2,1.5-1.2
		C65.7,17.9,65.9,18.4,65.7,19.1z"/>
</g>
<g>
	<path class="st16" d="M66.4,34.2h-0.5c-0.1,0-0.2-0.1-0.1-0.2l0.2-0.4c0-0.1,0.2-0.2,0.3-0.2h0.5c0.1,0,0.2,0.1,0.1,0.2L66.7,34
		C66.6,34.1,66.5,34.2,66.4,34.2z"/>
	<path class="st16" d="M68.1,34.2h-0.5c-0.1,0-0.2-0.1-0.1-0.2l0.2-0.4c0-0.1,0.2-0.2,0.3-0.2h0.5c0.1,0,0.2,0.1,0.1,0.2L68.4,34
		C68.3,34.1,68.2,34.2,68.1,34.2z"/>
	<path class="st16" d="M69.8,34.2h-0.5c-0.1,0-0.2-0.1-0.1-0.2l0.2-0.4c0-0.1,0.2-0.2,0.3-0.2h0.5c0.1,0,0.2,0.1,0.1,0.2L70.1,34
		C70.1,34.1,69.9,34.2,69.8,34.2z"/>
</g>
<g>
	<path class="st16" d="M59.5,30.8H48.6c-0.3,0-0.5-0.3-0.4-0.6l1.6-4.5c0.1-0.3,0.5-0.6,0.9-0.6h10.9c0.3,0,0.5,0.3,0.4,0.6
		l-1.6,4.5C60.3,30.5,59.9,30.8,59.5,30.8z"/>
	<path class="st11" d="M59.2,30.3h-9.8c-0.3,0-0.5-0.2-0.3-0.5l1.4-3.7c0.1-0.3,0.4-0.5,0.7-0.5H61c0.3,0,0.5,0.2,0.3,0.5l-1.4,3.7
		C59.8,30.1,59.5,30.3,59.2,30.3z"/>
	<path class="st16" d="M49.2,30.5c-0.8,2.4,0,3.1,0,3.1s0-1.4,0.6-2c0.6-0.7,1.4-0.9,1.4-0.9L49.2,30.5z"/>
	<path class="st16" d="M56.5,27.1h-5.3c-0.1,0-0.1-0.1-0.1-0.2l0,0c0-0.1,0.1-0.2,0.2-0.2h5.3c0.1,0,0.1,0.1,0.1,0.2l0,0
		C56.7,27.1,56.6,27.1,56.5,27.1z"/>
	<path class="st16" d="M56.2,27.9h-5.3c-0.1,0-0.1-0.1-0.1-0.2l0,0c0-0.1,0.1-0.2,0.2-0.2h5.3c0.1,0,0.1,0.1,0.1,0.2l0,0
		C56.4,27.9,56.3,27.9,56.2,27.9z"/>
	<path class="st16" d="M55.9,28.8h-5.3c-0.1,0-0.1-0.1-0.1-0.2l0,0c0-0.1,0.1-0.2,0.2-0.2H56c0.1,0,0.1,0.1,0.1,0.2l0,0
		C56.1,28.8,56,28.8,55.9,28.8z"/>
	<path class="st16" d="M69.4,35.9H58.9c-0.2,0-0.3-0.1-0.2-0.2l0,0c0.1-0.1,0.3-0.2,0.5-0.2h10.5c0.2,0,0.3,0.1,0.2,0.2l0,0
		C69.8,35.8,69.6,35.9,69.4,35.9z"/>
	<path class="st16" d="M68.9,37.2H58.4c-0.2,0-0.3-0.1-0.2-0.2l0,0c0.1-0.1,0.3-0.2,0.5-0.2h10.5c0.2,0,0.3,0.1,0.2,0.2l0,0
		C69.2,37.2,69,37.2,68.9,37.2z"/>
	<path class="st16" d="M58.3,29.2h-0.8c-0.3,0-0.5-0.3-0.4-0.6l0.6-1.6c0.1-0.3,0.5-0.6,0.9-0.6h0.8c0.3,0,0.5,0.3,0.4,0.6l-0.6,1.6
		C59.1,28.9,58.7,29.2,58.3,29.2z"/>
</g>
<g>
	<path class="st17" d="M85.2,59.6c1.4-7.7,1.1-10.4-2.7-16.7C78.8,36.6,78.4,25,77,28.4c-1.4,3.4-1.2,12,3.2,16.2
		c4.4,4.2,5,6,5.3,7.7s-0.6,6.9-0.6,6.9L85.2,59.6z"/>
	<path class="st18" d="M85.9,54.7C85.9,54.7,85.9,54.6,85.9,54.7c-0.1-0.7-0.5-4-1.1-5.2c-0.7-1.4-3.7-3.9-4.5-7s-2.2-5.5-3-7.5
		c-1.2-2.6-0.5-6,0.4-7.1c0,0,0,0-0.1,0l-0.3,0.2c-0.1,0.1-0.1,0.2-0.2,0.4c-1.4,3.4-1.2,12,3.2,16.2c4.4,4.2,5,6,5.3,7.7
		c0.1,0.5,0.1,1.2,0,2L85.9,54.7z"/>
	<path class="st17" d="M83.3,58.3c1-9,0.7-12.1-1.3-19.4c-2-7.2,11.1-23.7,10.7-20.8c-0.4,2.8-1.8,9.9-5.4,14.4
		c-3.6,4.4-3.9,8.1-3.2,11.9c0.7,3.8-0.1,12.7-0.1,12.7l-0.4,1.6L83.3,58.3z"/>
	<g>
		<path class="st18" d="M83.8,54.5L83.8,54.5C83.7,54.5,83.7,54.5,83.8,54.5c-0.1-0.1,0-2.9,0-5.2c-0.1-2.3-0.7-6.2-1-7.5
			c-0.3-1.2-0.8-5.3,1.3-9.6c1-2.1,1.9-3.4,3-5.3c1.1-1.8,2.6-4.1,4.8-8.1c0,0,0.1-0.1,0.1,0c0,0,0.1,0.1,0,0.1
			c-2.3,4-3.7,6.3-4.8,8.1c-1.1,1.8-2,3.2-3,5.3c-2.1,4.2-1.6,8.2-1.3,9.5c0.4,1.4,1,5.3,1.1,7.6C84,51.6,83.9,54.4,83.8,54.5
			C83.9,54.5,83.8,54.5,83.8,54.5z"/>
	</g>
	<path class="st17" d="M83.7,61.5c0.6-6,0.7-3.1-1.9-11.3c-3-9.4,7.6-17.7,9.4-14.3c1.7,3.4,3.7,14.1,3,13.7
		c-0.8-0.3-5.8-10.3-6-9.9c-0.1,0.4-6.9,3.9-6.6,7.4s2.8,9.2,2.8,9.2l-0.1,5.2L83.7,61.5z"/>
	<g>
		<path class="st18" d="M84.4,61.5L84.4,61.5l-0.7-0.1c0,0,0,0-0.1,0s0,0,0-0.1c0.1-0.7,0.1-1.3,0.2-1.8c0.3-2.6,0.3-2.6-0.5-4.8
			c-0.4-1-0.9-2.4-1.5-4.6c-0.5-1.6-0.7-3.4-0.4-5.1c0.2-1.5,0.7-3,1.5-4.4c1.4-2.5,3.5-4.6,5.5-5.4c1.4-0.6,2.4-0.4,2.9,0.5
			c0.7,1.4,1.6,4.4,2.4,7.9c0.4,2,1.1,5.5,0.7,5.9c0,0.1-0.1,0.1-0.2,0c-0.4-0.2-1.8-2.6-3.7-6c-1-1.7-1.9-3.5-2.2-3.8
			c-0.1,0.1-0.4,0.3-0.9,0.7c-1.9,1.3-5.8,3.9-5.6,6.6c0.3,3.5,2.8,9.1,2.8,9.1l0,0L84.4,61.5L84.4,61.5L84.4,61.5z M83.8,61.3
			l0.5,0.1l0.1-4.9c-0.2-0.4-2.6-5.8-2.8-9.2c-0.2-2.8,3.8-5.5,5.7-6.8c0.5-0.3,0.9-0.6,0.9-0.7c0,0,0-0.1,0.1-0.1
			c0.2,0,0.5,0.5,2.4,3.9c1.3,2.4,3.2,5.7,3.6,6c0-0.1,0.1-0.3-0.1-1.8c-0.1-1.1-0.4-2.5-0.7-3.9c-0.7-3.5-1.6-6.5-2.3-7.9
			c-0.4-0.8-1.4-0.9-2.6-0.4c-3.5,1.4-8.8,7.7-6.6,14.7c0.7,2.2,1.2,3.6,1.5,4.5c0.8,2.2,0.8,2.2,0.5,4.8
			C83.9,60.1,83.8,60.6,83.8,61.3z"/>
	</g>
	<path class="st15" d="M85.8,61.8h-3.1c-0.2,0-0.4-0.1-0.4-0.3l-1.1-8c0-0.4,0.2-0.7,0.5-0.7h5c0.3,0,0.6,0.3,0.5,0.7l-1.1,8
		C86.3,61.6,86.1,61.8,85.8,61.8z"/>
	<path class="st19" d="M85.5,61.5H85c-0.2,0-0.4-0.1-0.4-0.3l0.2-6.9c0-0.3,0.3-0.6,0.6-0.6h0.7c0.3,0,0.6,0.3,0.5,0.6l-0.7,6.9
		C85.9,61.4,85.7,61.5,85.5,61.5z"/>
	<g>
		<path class="st18" d="M82.1,50.4L82.1,50.4c-0.1-0.8-0.3-1.6-0.4-2.3C81.8,49.4,82.1,50.4,82.1,50.4z"/>
		<path class="st18" d="M82.1,44.5c-0.2,0.5-0.3,1-0.4,1.6c0.9-3.1,6.1-5.8,6.4-6.3l0.1-0.1C86.3,39.2,83.2,41.9,82.1,44.5z"/>
	</g>
	<g>
		<path class="st18" d="M94.2,49.5C94.1,49.5,94.1,49.5,94.2,49.5l-1-3.9c-0.7-3-1.6-6.7-2.7-8.4c-0.2-0.3-0.9-0.6-2-0.6
			c-1.4,0.1-4.1,1.1-6.5,6.5c0,0-0.1,0.1-0.1,0c0,0-0.1-0.1,0-0.1c2.4-5.5,5.2-6.5,6.7-6.6c1.1-0.1,1.9,0.3,2.1,0.7
			c1,1.7,1.9,5.3,2.7,8.4l0.9,3.8C94.2,49.4,94.2,49.5,94.2,49.5L94.2,49.5z"/>
	</g>
	<g>
		<path class="st18" d="M91.4,44.5L91.4,44.5C91.3,44.5,91.3,44.4,91.4,44.5c-0.1-0.1,0.3-3.3-0.6-6.6c0,0,0-0.1,0.1-0.1
			c0,0,0.1,0,0.1,0.1C91.8,41.2,91.5,44.4,91.4,44.5C91.5,44.5,91.4,44.5,91.4,44.5z"/>
	</g>
	<g>
		<path class="st18" d="M90.4,42.5L90.4,42.5C90.4,42.5,90.3,42.5,90.4,42.5c-0.1-0.1,0.3-3,0-5.4c0,0,0-0.1,0.1-0.1
			c0,0,0.1,0,0.1,0.1C90.8,39.5,90.5,42.4,90.4,42.5C90.5,42.5,90.5,42.5,90.4,42.5z"/>
	</g>
	<g>
		<path class="st18" d="M87.1,27.1C87.1,27.1,87,27.1,87.1,27.1C87,27,87,27,87.1,26.9c0,0,2.5-1.2,4-3.9c0,0,0.1-0.1,0.1,0
			c0,0,0.1,0.1,0,0.1C89.7,25.8,87.2,27.1,87.1,27.1L87.1,27.1z"/>
	</g>
	<g>
		<path class="st18" d="M85.3,30.3C85.2,30.3,85.2,30.2,85.3,30.3c-0.1-0.1-0.1-0.2,0-0.2c0,0,2.1-0.4,4.5-2.4h0.1v0.1
			C87.4,29.8,85.3,30.2,85.3,30.3C85.3,30.2,85.3,30.3,85.3,30.3z"/>
	</g>
	<g>
		<path class="st18" d="M83.8,33.3C83.7,33.3,83.7,33.3,83.8,33.3C83.7,33.3,83.7,33.3,83.8,33.3c-0.1-0.1-0.1-0.2,0-0.2
			c0,0,1.4,0.1,3.7-1.6h0.1v0.1C85.4,33.2,84.1,33.3,83.8,33.3z"/>
	</g>
</g>
</svg>
